<svg width="16" height="16" viewBox="0 0 16 16" fill="none" xmlns="http://www.w3.org/2000/svg">
<g clip-path="url(#clip0)">
<path d="M8.00072 4.99999C6.34751 4.99999 5.00058 6.34685 5.00058 7.99998C5.00058 9.65311 6.34751 11 8.00072 11C9.65394 11 11.0009 9.65311 11.0009 7.99998C11.0009 6.34685 9.65394 4.99999 8.00072 4.99999ZM15.7011 7.51561L12.7416 6.0375L13.7885 2.89999C13.9291 2.47501 13.526 2.07187 13.1041 2.21564L9.96645 3.26251L8.48512 0.299995C8.2851 -0.0999983 7.71634 -0.0999983 7.51632 0.299995L6.03814 3.25937L2.89736 2.21249C2.47232 2.07187 2.0692 2.47501 2.21294 2.89688L3.25987 6.03435L0.300346 7.51561C-0.0996676 7.71562 -0.0996676 8.28435 0.300346 8.48436L3.25987 9.96247L2.21294 13.1031C2.07231 13.5281 2.47547 13.9312 2.89736 13.7875L6.03499 12.7406L7.51321 15.7C7.71321 16.1 8.28199 16.1 8.48201 15.7L9.9602 12.7406L13.0978 13.7875C13.5229 13.9281 13.926 13.525 13.7823 13.1031L12.7353 9.96561L15.6948 8.48747C16.1011 8.28434 16.1011 7.71562 15.7011 7.51561L15.7011 7.51561ZM10.829 10.8281C9.26952 12.3875 6.73192 12.3875 5.17246 10.8281C3.61299 9.26872 3.61299 6.73125 5.17246 5.17187C6.73192 3.61248 9.26952 3.61248 10.829 5.17187C12.3884 6.73125 12.3884 9.26872 10.829 10.8281Z" fill="#25282D"/>
</g>
<defs>
<clipPath id="clip0">
<rect width="16" height="16" fill="white"/>
</clipPath>
</defs>
</svg>
