<svg width="482" height="180" viewBox="0 0 482 180" fill="none" xmlns="http://www.w3.org/2000/svg">
<path d="M199.842 120.88L193.737 98.3863C192.855 95.3329 192.294 93.265 192.058 92.1788C191.819 91.094 191.6 89.9407 191.396 88.7178H191.192C190.92 90.2116 190.598 91.8396 190.226 93.603C189.852 95.369 189.463 96.9621 189.055 98.3863L182.848 120.88H199.842ZM180.915 128.004L175.725 147.546C175.521 148.157 175.3 148.513 175.063 148.615C174.825 148.716 174.435 148.767 173.893 148.767H167.278C166.735 148.767 166.396 148.683 166.26 148.513C166.123 148.344 166.158 148.021 166.362 147.546L187.021 80.169C187.087 79.831 187.224 79.5589 187.427 79.3551C187.631 79.1512 188.003 79.0493 188.547 79.0493H194.551C195.024 79.0493 195.365 79.1512 195.569 79.3551C195.772 79.5589 195.941 79.831 196.078 80.169L216.838 147.546C216.905 147.887 216.922 148.141 216.888 148.309C216.853 148.479 216.769 148.598 216.634 148.665C216.566 148.733 216.48 148.767 216.38 148.767C216.278 148.767 216.023 148.767 215.616 148.767H208.899C208.424 148.767 208.085 148.683 207.881 148.513C207.679 148.344 207.542 148.053 207.475 147.647L201.777 128.004H180.915" fill="#1D5EB3"/>
<path d="M233.728 86.1739V147.546C233.728 148.021 233.626 148.344 233.424 148.513C233.22 148.683 232.914 148.767 232.508 148.767H226.606C226.13 148.767 225.79 148.683 225.587 148.513C225.384 148.344 225.316 148.021 225.384 147.546V80.2709C225.384 79.8633 225.468 79.5756 225.638 79.4066C225.807 79.2377 226.13 79.1177 226.606 79.0493H265.989C266.394 79.0493 266.683 79.1512 266.853 79.3551C267.021 79.5589 267.139 79.8633 267.209 80.2709V147.546C267.209 148.021 267.107 148.344 266.903 148.513C266.7 148.683 266.394 148.767 265.989 148.767H260.087C259.609 148.767 259.271 148.683 259.068 148.513C258.864 148.344 258.797 148.021 258.864 147.546V86.1739H233.728Z" fill="#1D5EB3"/>
<path d="M290.92 112.229H297.535C302.42 112.297 306.033 111.195 308.372 108.92C310.712 106.649 311.885 103.035 311.885 98.0818C311.885 93.9435 310.967 90.9417 309.136 89.0751C307.304 87.2085 303.842 86.2423 298.757 86.1739H290.92V112.229ZM290.92 119.352V147.546C290.92 148.021 290.819 148.344 290.614 148.513C290.41 148.683 290.106 148.767 289.698 148.767H283.795C283.321 148.767 282.981 148.683 282.777 148.513C282.576 148.344 282.505 148.021 282.576 147.546V80.2709C282.505 79.8633 282.576 79.5756 282.777 79.4066C282.981 79.2377 283.321 79.1177 283.795 79.0493H299.571C306.76 79.0493 312.001 80.4915 315.292 83.3747C318.583 86.2591 320.227 90.9921 320.227 97.5736C320.16 104.291 318.278 109.6 314.58 113.501C310.881 117.405 305.438 119.352 298.247 119.352H290.92" fill="#1D5EB3"/>
<path d="M364.392 142.864V147.546C364.392 148.021 364.291 148.344 364.086 148.513C363.882 148.683 363.578 148.767 363.17 148.767H331.623C331.148 148.767 330.81 148.683 330.606 148.513C330.402 148.344 330.334 148.021 330.402 147.546V80.2709C330.402 79.8633 330.488 79.5756 330.657 79.4066C330.826 79.2377 331.148 79.1177 331.623 79.0493H363.578C363.917 79.0493 364.188 79.1512 364.392 79.3551C364.596 79.5589 364.663 79.7962 364.596 80.0671L362.865 85.2581C362.729 85.6644 362.56 85.9366 362.358 86.072C362.153 86.2087 361.88 86.2423 361.543 86.1739H338.748V108.768H358.795C359.202 108.836 359.489 108.956 359.661 109.125C359.828 109.296 359.947 109.582 360.015 109.99V114.671C360.015 115.147 359.915 115.471 359.711 115.639C359.507 115.808 359.202 115.893 358.795 115.893H338.748V141.643H363.17C363.578 141.643 363.864 141.744 364.036 141.948C364.203 142.152 364.323 142.457 364.392 142.864" fill="#1D5EB3"/>
<path d="M393.393 86.1739L393.19 100.829C393.051 107.888 392.765 114.096 392.324 119.454C391.882 124.816 391.29 129.192 390.543 132.584C389.457 137.537 388.015 141.235 386.219 143.678C384.42 146.12 382.097 147.887 379.248 148.971C378.23 149.309 377.194 149.598 376.143 149.835C375.092 150.072 374.125 150.192 373.244 150.192C372.699 150.192 372.31 150.106 372.074 149.937C371.834 149.768 371.682 149.547 371.615 149.276L370.395 143.984C370.191 143.373 370.191 142.899 370.395 142.559C370.597 142.22 370.936 142.016 371.412 141.948L372.53 141.846C375.516 141.576 377.788 140.559 379.348 138.793C380.909 137.029 382.097 134.518 382.911 131.262C383.656 128.004 384.268 123.188 384.742 116.809C385.217 110.431 385.488 102.933 385.558 94.3163L385.658 80.2709C385.658 79.8633 385.742 79.5756 385.912 79.4066C386.081 79.2376 386.405 79.1177 386.88 79.0493H418.426C418.834 79.0493 419.121 79.1512 419.292 79.355C419.461 79.5589 419.581 79.8633 419.648 80.2709V147.546C419.581 148.021 419.461 148.344 419.292 148.513C419.121 148.683 418.834 148.767 418.426 148.767H412.524C412.049 148.767 411.71 148.683 411.508 148.513C411.304 148.344 411.235 148.021 411.304 147.546V86.1739H393.393" fill="#1D5EB3"/>
<path d="M447.327 141.643H457.198C461.336 141.711 464.577 140.609 466.917 138.335C469.256 136.063 470.428 132.924 470.428 128.92C470.359 124.578 469.087 121.286 466.612 119.048C464.135 116.809 460.826 115.655 456.688 115.587H447.327V141.643ZM447.327 108.464H457.3C460.149 108.464 462.828 108.804 465.339 109.48C467.849 110.16 470.087 111.178 472.055 112.534C474.498 114.365 476.347 116.641 477.602 119.352C478.857 122.068 479.517 125.19 479.587 128.716C479.517 131.566 479.078 134.18 478.263 136.553C477.449 138.929 476.33 140.93 474.905 142.559C473.073 144.595 470.766 146.138 467.985 147.189C465.203 148.242 461.608 148.767 457.198 148.767H440.203C439.729 148.767 439.389 148.683 439.186 148.513C438.983 148.344 438.913 148.021 438.983 147.546V80.2709C438.913 79.8633 438.983 79.5756 439.186 79.4066C439.389 79.2377 439.729 79.1177 440.203 79.0493H446.106C446.513 79.0493 446.801 79.1512 446.971 79.3551C447.14 79.5589 447.259 79.8633 447.327 80.2709V108.464" fill="#1D5EB3"/>
<path d="M143.278 86.3829L146.824 84.1525L146.4 86.3829H143.278Z" fill="#6ECFE6"/>
<path d="M141.49 102.362L133.21 106.708L141.144 88.3875L145.267 94.493L142.236 101.22L141.49 102.362Z" fill="#00ACCF"/>
<path d="M99.0227 116.503L122.89 109.795L111.648 120.209L99.0227 116.503Z" fill="#0E87B8"/>
<path d="M97.0688 115.712L93.2921 106.351L121.7 108.789L97.0688 115.712Z" fill="#00ACCF"/>
<path d="M57.4992 124.599L55.887 123.121L57.5904 122.276L66.6101 126.549L61.7279 129.049L57.5285 124.592L57.4992 124.599" fill="#1766B5"/>
<path d="M34.4236 105.212L50.3629 119.812L42.1005 118.557L34.4236 105.212Z" fill="#1766B5"/>
<path d="M87.1741 3.74358L89.3265 3.35787L86.3287 5.05035L87.1741 3.74358Z" fill="#47B8EC"/>
<path d="M134.647 49.515L142.605 68.6184L111.866 48.9177L124.646 38.9938V39.5524L125.336 38.6687L134.476 49.306L134.467 49.3331L134.647 49.515" fill="#C4ECFB"/>
<path d="M78.8779 128.21L78.9913 128.385L75.5884 129.665L76.3689 123.924L76.4842 122.941L83.3571 119.421L84.9763 121.981L79.6342 128.104L78.8779 128.21" fill="#1766B5"/>
<path d="M52.6523 120.159L35.8932 104.809L62.0704 118.567L57.477 120.89L52.6523 120.159" fill="#1766B5"/>
<path d="M55.4646 121.89L54.8665 122.188L54.3591 121.722L55.4646 121.89Z" fill="#14599D"/>
<path d="M53.6277 122.801L48.2226 125.48L42.3716 123.687L42.3468 119.899L52.0698 121.375L53.6277 122.801" fill="#1766B5"/>
<path d="M10.4622 87.7361L12.0079 76.6447L12.6251 75.6437L29.6587 100.004L19.1781 94.186L10.4622 87.7361" fill="#0799E0"/>
<path d="M74.3046 129.532L70.7803 127.153L70.6196 125.944L75.1023 123.648L75.0891 123.762L74.3046 129.532" fill="#1766B5"/>
<path d="M70.4396 124.587L69.8058 119.804L75.5047 120.218L75.283 122.107L70.4396 124.587" fill="#1766B5"/>
<path d="M13.2685 47.8019L30.28 44.5459L13.0192 72.5452L13.2685 47.8019Z" fill="#47B8EC"/>
<path d="M44.4605 17.7787L43.8574 21.9686L32.9866 24.3138L43.3631 14.4467L44.4605 17.7787Z" fill="#59C8DA"/>
<path d="M45.1341 22.9335L63.9951 11.0204L73.9262 68.3798L32.5553 43.3114L45.0596 23.0289L45.1508 23.0096L45.1341 22.9335" fill="#96DDF8"/>
<path d="M74.1252 70.9727L73.1776 107.7L33.3987 101.52L74.1252 70.9727Z" fill="#47B8EC"/>
<path d="M32.4318 100.633V44.7446L73.6531 69.7227L32.4318 100.633Z" fill="#C4ECFB"/>
<path d="M74.4684 107.696L75.3804 72.3233L91.3379 105.112L74.4684 107.696Z" fill="#59C8DA"/>
<path d="M31.142 45.6037V99.8749L13.3622 74.4479L31.142 45.6037Z" fill="#47B8EC"/>
<path d="M72.4338 108.889L63.3618 117.789L35.5178 103.155L72.4338 108.889Z" fill="#0B8ED8"/>
<path d="M71.8469 111.262L68.6622 118.418L64.886 118.062L71.8469 111.262Z" fill="#1766B5"/>
<path d="M76.8061 120.194L79.87 119.759L76.6652 121.398L76.8061 120.194Z" fill="#1766B5"/>
<path d="M83.212 117.98L76.2016 118.976L70.025 118.527L74.2497 109.034L90.9449 106.478L83.212 117.98" fill="#0B8ED8"/>
<path d="M75.6469 69.9226L109.781 50.2684L92.1843 103.905L75.6469 69.9226Z" fill="#96DDF8"/>
<path d="M95.9257 22.2614L110.782 21.4603L110.316 46.5828L95.9257 22.2614Z" fill="#66CEF5"/>
<path d="M111.652 44.1216L112.068 21.748L119.051 24.7356L111.652 44.1216Z" fill="#96DDF8"/>
<path d="M119.893 26.1404L124.509 37.4677L111.809 47.3271L119.893 26.1404Z" fill="#C4ECFB"/>
<path d="M96.475 20.9378L105.819 11.5725L110.396 20.1896L96.475 20.9378Z" fill="#66CEF5"/>
<path d="M85.5416 7.44584L97.7209 6.40484L94.5286 20.129L85.5416 7.44584Z" fill="#0799E0"/>
<path d="M93.0735 20.3032L66.9572 10.2296L84.0684 7.59677L93.0735 20.3032Z" fill="#66CEF5"/>
<path d="M94.3906 22.1956L109.685 48.0508L109.855 48.7384L75.2826 68.6507L65.2955 10.9714L94.3906 22.1956Z" fill="#C4ECFB"/>
<path d="M62.9522 10.1535L45.2525 21.3339L45.7306 18.0057L55.0798 7.63931L62.9522 10.1535" fill="#59C8DA"/>
<path d="M44.408 13.4933L46.8002 11.5003L45.1642 15.7921L44.408 13.4933Z" fill="#59C8DA"/>
<path d="M31.1647 24.2738L28.1638 15.5664L33.6114 12.6123L42.2344 13.7423L31.1647 24.2738" fill="#59C8DA"/>
<path d="M31.7266 25.9043L43.3112 23.4056L31.5331 42.5129L22.3884 34.3899L30.9657 26.2346L32.0737 26.9105L31.7266 25.9043Z" fill="#47B8EC"/>
<path d="M30.3792 43.2134L13.6963 46.4061L21.5359 35.36L30.3792 43.2134Z" fill="#47B8EC"/>
<path d="M11.7333 72.162L9.62775 67.4252L11.9227 53.3488L11.7333 72.162Z" fill="#0799E0"/>
<path d="M11.0889 73.8906L10.767 76.1997L7.27289 81.8679L9.24843 69.7485L11.0889 73.8906" fill="#0799E0"/>
<path d="M63.6778 119.2L68.4905 119.689L69.2215 125.21L68.0576 125.808L59.0505 121.54L63.6778 119.2" fill="#1766B5"/>
<path d="M69.4396 127.89L69.0683 129.591L64.1812 129.242L68.0803 127.245L69.4396 127.89Z" fill="#1766B5"/>
<path d="M70.6054 128.593L72.4424 129.831L70.3677 129.683L70.6054 128.593Z" fill="#1766B5"/>
<path d="M73.3141 131.187L69.166 135.188L70.089 130.957L73.3141 131.187Z" fill="#1766B5"/>
<path d="M74.1589 132.165V138.146L69.3428 136.809L74.1589 132.165Z" fill="#1766B5"/>
<path d="M85.5718 123.195L87.291 127.046L81.5684 127.837L85.5718 123.195Z" fill="#1766B5"/>
<path d="M85.98 121.166L84.6539 119.062L92.6972 117.78L85.98 121.166Z" fill="#1766B5"/>
<path d="M84.9491 117.709L92.157 106.987L95.7856 115.98L84.9491 117.709Z" fill="#0E87B8"/>
<path d="M110.622 51.8383L124.448 107.731L93.1431 105.044L110.622 51.8383Z" fill="#59C8DA"/>
<path d="M111.726 50.9327L140.23 87.0408L125.586 106.96L111.726 50.9327Z" fill="#6ECFE6"/>
<path d="M140.655 85.4979L114.139 51.9066L143.283 70.5857L140.655 85.4979Z" fill="#96DDF8"/>
<path d="M124.646 34.386L121.064 25.596L124.646 27.1285V34.386Z" fill="#C4ECFB"/>
<path d="M113.044 20.7637L121.223 17.073L119.452 23.5036L113.044 20.7637Z" fill="#96DDF8"/>
<path d="M111.078 18.7229L107.715 12.3929L111.614 14.9187L111.078 18.7229Z" fill="#96DDF8"/>
<path d="M95.9709 19.6182L98.9694 6.72731L104.959 10.6076L95.9709 19.6182Z" fill="#66CEF5"/>
<path d="M87.2618 6.0036L92.9225 2.81088L96.6196 5.20511L87.2618 6.0036Z" fill="#0799E0"/>
<path d="M66.5903 8.9809L74.2855 2.3452L82.3282 6.55958L66.5903 8.9809Z" fill="#66CEF5"/>
<path d="M64.8577 8.77063L62.864 -6.46322e-06L73.6597 1.18164L64.8577 8.77063Z" fill="#66CEF5"/>
<path d="M63.5871 9.00287L56.0482 6.59576L61.6745 0.588271L63.5871 9.00287Z" fill="#59C8DA"/>
<path d="M46.9479 14.7304L48.7748 9.92904L52.6009 8.46234L46.9479 14.7304Z" fill="#59C8DA"/>
<path d="M47.6981 9.11511L43.4659 12.6032L34.813 11.4693L49.3855 2.55679L47.6981 9.11511Z" fill="#59C8DA"/>
<path d="M29.6865 23.9435L26.1521 21.7879L27.4282 17.3929L29.6865 23.9435Z" fill="#0E87B8"/>
<path d="M21.8906 33.0999L20.8335 26.0733H29.2759L21.8906 33.0999Z" fill="#00ACCF"/>
<path d="M12.4719 45.912L8.40143 33.1308L20.3 34.8916L12.4719 45.912Z" fill="#0799E0"/>
<path d="M8.67153 65.2748L5.4505 58.025L11.1675 49.9691L8.67153 65.2748Z" fill="#0799E0"/>
<path d="M8.29264 67.5968L6.4108 79.1383L5.52759 61.3764L8.29264 67.5968Z" fill="#0799E0"/>
<path d="M6.8844 84.9561L10.3241 79.3756L9.28114 86.8615L7.07938 85.2309L6.8844 84.9561" fill="#0B8ED8"/>
<path d="M10.2601 89.1873L17.2211 94.3357L13.9567 94.9317L10.1981 89.6298L10.2601 89.1873Z" fill="#0799E0"/>
<path d="M14.2359 96.1907L18.6828 95.3793L29.298 101.278H13.4459L14.2359 96.1907Z" fill="#0B8ED8"/>
<path d="M14.1814 102.568H31.4136L40.665 118.648L30.6337 120.126L14.1814 102.568" fill="#0B8ED8"/>
<path d="M41.9589 124.91L47.1786 126.509L39.5385 127.926L41.9589 124.91Z" fill="#1766B5"/>
<path d="M54.6476 123.735L55.9107 124.892L50.1694 125.957L54.6476 123.735Z" fill="#1766B5"/>
<path d="M68.7897 130.864L67.7835 135.475L63.0515 130.454L68.7897 130.864Z" fill="#1766B5"/>
<path d="M71.0452 166.57L70.0397 169.874L68.3104 167.595L71.0452 166.57Z" fill="#1766B5"/>
<path d="M71.4363 165.045L68.0712 166.308L72.6263 151.674L71.4363 165.045Z" fill="#1766B5"/>
<path d="M68.0586 162.007L68.6697 138.936L73.0204 146.071L68.0586 162.007Z" fill="#1766B5"/>
<path d="M67.8695 169.149L69.4915 171.286L67.7466 173.795L67.8695 169.149Z" fill="#1766B5"/>
<path d="M70.3117 172.367L72.5618 175.335L68.0551 175.613L70.3117 172.367Z" fill="#1766B5"/>
<path d="M81.9216 176.282L75.2855 175.443L82.5941 168.897L81.9216 176.282Z" fill="#1766B5"/>
<path d="M83.7979 169.903L86.0374 175.085L83.2366 176.066L83.7979 169.903Z" fill="#1766B5"/>
<path d="M73.895 174.957L71.002 171.143L72.4963 166.232L81.9468 167.746L73.895 174.957" fill="#1766B5"/>
<path d="M73.0436 161.54L74.2951 147.479L77.6637 150.778L73.0436 161.54Z" fill="#1766B5"/>
<path d="M78.6512 151.745L82.0446 155.067L73.8799 162.861L78.6512 151.745Z" fill="#1766B5"/>
<path d="M74.8507 146.22L81.054 142.879L78.2087 149.507L74.8507 146.22Z" fill="#1766B5"/>
<path d="M74.5692 144.906L75.3859 140.294L75.9381 139.981L81.0681 141.406L74.5692 144.906" fill="#1766B5"/>
<path d="M74.159 139.827L73.3856 144.191L69.7721 138.268L74.159 139.487V139.827" fill="#1766B5"/>
<path d="M75.4489 138.506V131.65L82.4073 134.818L75.7673 138.594L75.4489 138.506" fill="#1766B5"/>
<path d="M76.4852 130.704L79.7013 129.497L82.107 133.264L76.4852 130.704Z" fill="#1766B5"/>
<path d="M81.0479 129.212L87.5741 128.31L83.8497 133.596L81.0479 129.212Z" fill="#1766B5"/>
<path d="M88.6095 126.838L86.5817 122.307L94.6753 118.226L88.6095 126.838Z" fill="#1766B5"/>
<path d="M126.921 107.322L138.177 92.0111L131.47 107.483H131.369L131.364 107.508L127.028 107.721L127.691 107.105L126.921 107.322Z" fill="#00ACCF"/>
<path d="M141.928 85.7069L144.155 73.0728L146.976 82.5336L141.928 85.7069Z" fill="#00ACCF"/>
<path d="M144.013 68.6481L137.07 51.9814L146.966 62.0498L144.013 68.6481Z" fill="#96DDF8"/>
<path d="M146.207 59.4389L135.916 48.9642L138.986 38.3127L146.207 59.4389Z" fill="#96DDF8"/>
<path d="M134.902 47.8264L126.286 37.8444L134.38 33.1295L138.199 36.3867L134.902 47.8264" fill="#96DDF8"/>
<path d="M133.34 32.2408L125.936 36.3726V27.7464L133.34 32.2408Z" fill="#C4ECFB"/>
<path d="M121.125 24.2183L124.646 21.4332V25.725L121.125 24.2183Z" fill="#96DDF8"/>
<path d="M124.402 19.9819L121.02 22.6573L122.478 17.3736L124.402 19.9819Z" fill="#96DDF8"/>
<path d="M112.242 19.7098L112.867 15.2696L119.907 16.2526L112.242 19.7098Z" fill="#96DDF8"/>
<path d="M84.2956 5.81915L81.116 2.06011L85.7824 3.51909L84.2956 5.81915Z" fill="#47B8EC"/>
<path d="M81.7418 4.7962L75.1592 1.34677L79.1984 1.78923L81.7418 4.7962Z" fill="#47B8EC"/>
<path d="M54.6873 6.16099L54.6793 6.1584L54.5049 6.3519L49.2166 8.37976L50.9267 1.74406L60.2657 0.205115L54.6873 6.16099Z" fill="#59C8DA"/>
<path d="M25.4009 22.8406L28.5846 24.7833H22.3173L25.4009 22.8406Z" fill="#00ACCF"/>
<path d="M19.5836 26.437L20.6678 33.6416L9.46606 31.984L19.5836 26.437Z" fill="#00ACCF"/>
<path d="M7.78679 35.4502L11.5373 47.2291L5.61829 55.5612L7.78679 35.4502Z" fill="#0799E0"/>
<path d="M4.2831 62.3117L5.34014 83.5862L0 79.3834L4.2831 62.3117Z" fill="#0799E0"/>
<path d="M9.93864 91.4938L12.9909 95.7985L12.2593 100.516L9.14459 97.1917L9.93864 91.4938Z" fill="#0799E0"/>
<path d="M41.057 119.894L41.0833 123.938L37.9106 127.893L31.7068 121.272L41.057 119.894Z" fill="#0B8ED8"/>
<path d="M57.7643 176.244L66.5904 168.724L66.4056 175.713L57.7643 176.244Z" fill="#1766B5"/>
<path d="M87.3665 174.91L83.8604 167.819L94.6752 176.282L87.3665 174.91Z" fill="#1766B5"/>
<path d="M82.7146 166.562L73.4285 165.076L82.3771 156.534L82.7146 166.562Z" fill="#1766B5"/>
<path d="M82.2743 153.487L79.1969 150.473L81.9563 144.045L82.2743 153.487Z" fill="#1766B5"/>
<path d="M82.0175 140.332L77.5198 139.08L82.95 135.992L82.0175 140.332Z" fill="#1766B5"/>
<path d="M104.098 124.46L98.5221 117.7L110.041 121.082L104.098 124.46Z" fill="#1766B5"/>
<path d="M120.085 119.377L113.688 120.079L123.804 110.706L120.814 119.119L120.085 119.377" fill="#1766B5"/>
<path d="M129.575 116.004L122.38 118.56L125.754 109.074L131.089 108.813L129.575 116.004Z" fill="#0E87B8"/>
<path d="M138.145 107.483H134.411L140.056 104.558L138.145 107.483Z" fill="#00ACCF"/>
<path d="M143.65 89.5498L142.299 87.6729H145.662L143.65 89.5498Z" fill="#6ECFE6"/>
<path d="M165.388 175.502V166.26C165.388 166.193 165.399 166.139 165.419 166.098C165.44 166.056 165.476 166.031 165.53 166.016L165.976 165.916L166.625 165.753C166.638 165.753 166.661 165.749 166.696 165.743C166.73 165.737 166.759 165.733 166.788 165.733C166.828 165.733 166.857 165.749 166.878 165.784C166.897 165.818 166.915 165.862 166.928 165.916V171.407L166.868 173.394H166.928C167.199 172.853 167.406 172.448 167.546 172.179C167.688 171.908 167.807 171.692 167.901 171.53L171.002 166.118C171.014 166.091 171.033 166.071 171.052 166.056C171.073 166.045 171.096 166.031 171.123 166.016L172.218 165.753C172.245 165.753 172.272 165.753 172.298 165.753C172.325 165.753 172.352 165.747 172.379 165.733C172.42 165.733 172.45 165.749 172.471 165.784C172.491 165.818 172.508 165.862 172.521 165.916V175.502C172.521 175.596 172.502 175.66 172.46 175.694C172.42 175.729 172.36 175.744 172.279 175.744H171.225C171.129 175.744 171.062 175.729 171.022 175.694C170.982 175.66 170.968 175.596 170.982 175.502V170.355L171.042 168.388H170.982C170.778 168.767 170.593 169.12 170.424 169.452C170.255 169.783 170.117 170.043 170.008 170.232L166.909 175.644C166.881 175.684 166.855 175.711 166.828 175.725C166.801 175.738 166.753 175.744 166.686 175.744H165.632C165.537 175.744 165.473 175.729 165.44 175.694C165.405 175.66 165.388 175.596 165.388 175.502" fill="#115A5C"/>
<path d="M177.425 171.367V175.502C177.425 175.596 177.404 175.66 177.364 175.694C177.323 175.729 177.262 175.744 177.182 175.744H176.129C176.033 175.744 175.969 175.729 175.935 175.694C175.902 175.66 175.885 175.596 175.885 175.5V166.241C175.885 166.173 175.895 166.118 175.916 166.078C175.935 166.038 175.972 166.01 176.027 165.998L176.473 165.895L177.12 165.733C177.135 165.733 177.158 165.73 177.191 165.724C177.225 165.717 177.256 165.713 177.283 165.713C177.323 165.713 177.354 165.73 177.374 165.764C177.394 165.797 177.411 165.841 177.425 165.895V170.111H181.336V166.242C181.336 166.174 181.346 166.12 181.366 166.08C181.386 166.038 181.423 166.011 181.477 165.998L182.571 165.733C182.598 165.733 182.625 165.73 182.652 165.724C182.68 165.717 182.707 165.713 182.734 165.713C182.775 165.713 182.805 165.73 182.825 165.764C182.845 165.797 182.861 165.841 182.876 165.895V175.5C182.861 175.596 182.838 175.66 182.805 175.694C182.771 175.729 182.713 175.744 182.633 175.744H181.579C181.484 175.744 181.417 175.729 181.377 175.694C181.336 175.66 181.323 175.596 181.336 175.502V171.367H177.425" fill="#115A5C"/>
<path d="M192.076 167.882V174.043C192.318 174.272 192.552 174.435 192.774 174.529C192.997 174.623 193.203 174.67 193.393 174.67C194.082 174.684 194.581 174.407 194.892 173.84C195.202 173.271 195.357 172.252 195.357 170.78C195.357 169.414 195.202 168.46 194.892 167.912C194.581 167.365 194.101 167.091 193.453 167.091C193.21 167.091 192.963 167.17 192.713 167.325C192.463 167.479 192.25 167.666 192.076 167.882V167.882ZM190.536 174.043V167.882C190.346 167.666 190.126 167.479 189.877 167.325C189.627 167.17 189.387 167.091 189.157 167.091C188.495 167.105 188.009 167.381 187.698 167.922C187.387 168.462 187.239 169.414 187.252 170.78C187.252 172.252 187.404 173.269 187.709 173.83C188.013 174.39 188.516 174.67 189.218 174.67C189.393 174.67 189.593 174.623 189.816 174.529C190.038 174.435 190.278 174.272 190.536 174.043V174.043ZM191.832 180H190.778C190.683 179.987 190.62 179.964 190.586 179.929C190.551 179.896 190.536 179.839 190.536 179.757V175.401C190.319 175.617 190.086 175.775 189.835 175.877C189.585 175.978 189.32 176.028 189.036 176.028C187.928 176.028 187.077 175.575 186.483 174.67C185.887 173.765 185.591 172.482 185.591 170.82C185.591 169.145 185.881 167.879 186.461 167.02C187.043 166.162 187.813 165.733 188.771 165.733C189.056 165.747 189.339 165.814 189.624 165.937C189.906 166.056 190.211 166.254 190.536 166.523V162.065C190.536 162.011 190.549 161.961 190.576 161.913C190.603 161.865 190.643 161.836 190.697 161.821L191.67 161.579C191.832 161.539 191.937 161.535 191.984 161.569C192.031 161.602 192.062 161.667 192.076 161.761V166.523C192.385 166.254 192.683 166.056 192.966 165.937C193.251 165.814 193.541 165.747 193.838 165.733C194.783 165.733 195.551 166.162 196.138 167.02C196.726 167.879 197.02 169.145 197.02 170.82C197.02 172.482 196.719 173.765 196.118 174.67C195.516 175.575 194.668 176.028 193.575 176.028C193.278 176.028 193.003 175.978 192.754 175.877C192.504 175.775 192.278 175.617 192.076 175.401V179.757C192.062 179.839 192.037 179.896 192.004 179.929C191.97 179.964 191.913 179.987 191.832 180" fill="#115A5C"/>
<path d="M203.119 166.989C202.294 166.989 201.693 167.331 201.315 168.013C200.937 168.695 200.747 169.652 200.747 170.881C200.747 172.125 200.937 173.083 201.315 173.758C201.693 174.435 202.294 174.772 203.119 174.772C203.929 174.772 204.527 174.435 204.912 173.758C205.297 173.083 205.489 172.125 205.489 170.881C205.476 169.652 205.28 168.695 204.902 168.013C204.523 167.331 203.929 166.989 203.119 166.989V166.989ZM203.119 165.733C204.307 165.733 205.273 166.175 206.016 167.061C206.759 167.945 207.137 169.22 207.15 170.881C207.15 172.557 206.776 173.83 206.027 174.702C205.276 175.571 204.307 176.014 203.119 176.028C201.916 176.028 200.944 175.59 200.201 174.711C199.458 173.834 199.086 172.557 199.086 170.881C199.086 169.22 199.458 167.949 200.201 167.072C200.944 166.193 201.916 165.747 203.119 165.733Z" fill="#115A5C"/>
<path d="M211.548 168.084V174.002C211.885 174.204 212.247 174.367 212.632 174.489C213.017 174.609 213.364 174.67 213.675 174.67C214.391 174.67 214.915 174.407 215.246 173.88C215.576 173.354 215.743 172.319 215.743 170.78C215.729 169.374 215.561 168.408 215.236 167.882C214.912 167.354 214.412 167.091 213.736 167.091C213.439 167.105 213.105 167.192 212.734 167.354C212.362 167.517 211.966 167.761 211.548 168.084V168.084ZM210.008 179.777V168.651C209.994 168.219 209.95 167.865 209.877 167.588C209.802 167.31 209.69 167.037 209.541 166.766C209.447 166.618 209.399 166.538 209.399 166.524C209.399 166.511 209.399 166.496 209.399 166.484C209.399 166.471 209.403 166.453 209.41 166.432C209.416 166.413 209.447 166.382 209.501 166.34L210.373 165.793C210.44 165.753 210.501 165.737 210.555 165.743C210.609 165.75 210.663 165.782 210.718 165.835C210.825 165.97 210.93 166.135 211.031 166.33C211.132 166.527 211.21 166.726 211.264 166.929L211.426 166.809C211.926 166.442 212.389 166.173 212.815 165.997C213.24 165.822 213.662 165.733 214.081 165.733C215.121 165.747 215.935 166.189 216.523 167.061C217.11 167.932 217.404 169.185 217.404 170.82C217.39 172.496 217.073 173.782 216.451 174.68C215.829 175.579 214.931 176.028 213.756 176.028C213.351 176.028 212.959 175.968 212.581 175.845C212.202 175.725 211.858 175.556 211.548 175.339V179.474C211.534 179.528 211.513 179.578 211.486 179.626C211.459 179.672 211.426 179.703 211.386 179.716L210.413 179.96C210.238 180 210.123 180.004 210.069 179.97C210.015 179.936 209.994 179.871 210.008 179.777Z" fill="#115A5C"/>
<path d="M222.206 166.2L223.786 170.637C223.84 170.8 223.894 170.996 223.949 171.225C224.003 171.455 224.063 171.718 224.132 172.016H224.191C224.232 171.812 224.29 171.57 224.364 171.286C224.437 171.002 224.502 170.786 224.556 170.637L226.117 166.2C226.13 166.131 226.15 166.087 226.177 166.067C226.204 166.047 226.244 166.031 226.299 166.016H227.738C227.791 166.016 227.83 166.035 227.849 166.067C227.87 166.102 227.886 166.146 227.899 166.2L228.427 175.582C228.427 175.636 228.413 175.677 228.385 175.704C228.358 175.73 228.318 175.744 228.264 175.744H227.11C227.041 175.744 226.998 175.734 226.978 175.715C226.958 175.694 226.947 175.65 226.947 175.582L226.724 168.55C226.711 168.55 226.707 168.554 226.714 168.56C226.722 168.568 226.724 168.313 226.724 167.801H226.684C226.643 167.99 226.613 168.142 226.593 168.257C226.573 168.371 226.549 168.47 226.522 168.55L224.82 173.474C224.779 173.569 224.749 173.631 224.729 173.657C224.708 173.686 224.658 173.691 224.577 173.678H223.746C223.651 173.678 223.594 173.667 223.573 173.647C223.554 173.627 223.529 173.569 223.502 173.474L221.822 168.55C221.795 168.496 221.767 168.416 221.74 168.308C221.713 168.199 221.68 168.03 221.638 167.801H221.598C221.584 168.313 221.584 168.564 221.598 168.55L221.375 175.582C221.361 175.65 221.344 175.694 221.325 175.715C221.304 175.734 221.267 175.744 221.213 175.744H220.058C219.99 175.744 219.942 175.73 219.915 175.704C219.888 175.677 219.883 175.636 219.896 175.582L220.423 166.2C220.423 166.146 220.436 166.102 220.463 166.067C220.491 166.035 220.537 166.016 220.605 166.016H222.024C222.064 166.016 222.098 166.035 222.125 166.067C222.152 166.102 222.179 166.146 222.206 166.2" fill="#115A5C"/>
<path d="M236.188 173.515V170.9H235.883C234.802 170.915 233.952 171.108 233.331 171.48C232.709 171.851 232.406 172.394 232.419 173.11C232.419 173.624 232.554 174.029 232.824 174.327C233.095 174.623 233.446 174.772 233.878 174.772C234.203 174.772 234.563 174.667 234.962 174.457C235.361 174.248 235.728 173.974 236.066 173.636L236.188 173.515ZM236.188 169.645V168.915C236.173 168.253 236.026 167.783 235.741 167.506C235.459 167.23 235.04 167.091 234.485 167.091C234.134 167.091 233.752 167.141 233.341 167.242C232.928 167.345 232.561 167.469 232.237 167.617C232.102 167.686 232.02 167.722 231.993 167.728C231.966 167.736 231.945 167.74 231.933 167.74C231.893 167.753 231.855 167.75 231.82 167.728C231.788 167.709 231.77 167.678 231.77 167.638L231.467 166.828C231.426 166.734 231.432 166.649 231.486 166.574C231.54 166.5 231.676 166.416 231.893 166.321C232.338 166.146 232.794 166.004 233.26 165.895C233.725 165.787 234.195 165.733 234.668 165.733C235.668 165.733 236.428 165.973 236.947 166.453C237.467 166.932 237.728 167.617 237.728 168.51V173.11C237.728 173.354 237.748 173.617 237.788 173.901C237.83 174.183 237.89 174.407 237.971 174.569C237.999 174.65 238.039 174.752 238.093 174.872C238.147 174.995 238.201 175.084 238.255 175.137C238.295 175.204 238.322 175.258 238.335 175.299C238.335 175.326 238.325 175.35 238.306 175.369C238.285 175.39 238.255 175.413 238.214 175.441L237.363 175.968C237.254 176.022 237.164 176.022 237.089 175.968C237.016 175.913 236.931 175.805 236.836 175.644C236.741 175.495 236.674 175.373 236.634 175.279C236.593 175.184 236.532 175.001 236.451 174.732L236.431 174.67L236.35 174.752C235.85 175.252 235.384 175.59 234.952 175.765C234.52 175.94 234.074 176.028 233.614 176.028C232.777 176.014 232.108 175.759 231.608 175.258C231.108 174.759 230.866 174.063 230.879 173.171C230.879 172.319 231.129 171.62 231.629 171.073C232.129 170.526 232.832 170.144 233.736 169.928C234.047 169.861 234.415 169.796 234.84 169.736C235.265 169.675 235.607 169.645 235.864 169.645H236.188" fill="#115A5C"/>
<path d="M242.531 174.489H246.239V166.241C246.239 166.173 246.248 166.118 246.269 166.078C246.289 166.038 246.327 166.01 246.381 165.998L247.475 165.733C247.502 165.733 247.529 165.733 247.556 165.733C247.583 165.733 247.61 165.728 247.637 165.713C247.677 165.713 247.707 165.73 247.728 165.764C247.748 165.797 247.765 165.841 247.779 165.895V174.489H248.772C248.852 174.501 248.917 174.519 248.963 174.539C249.011 174.559 249.042 174.63 249.055 174.752V178.48C249.055 178.562 249.035 178.622 248.994 178.664C248.954 178.704 248.894 178.724 248.812 178.724H247.759C247.663 178.71 247.596 178.687 247.556 178.653C247.515 178.62 247.502 178.562 247.515 178.48V175.744H241.233C241.139 175.744 241.075 175.729 241.041 175.694C241.008 175.66 240.99 175.596 240.99 175.5V166.241C240.99 166.173 241.001 166.118 241.021 166.078C241.041 166.038 241.079 166.01 241.133 165.998L242.227 165.733C242.254 165.733 242.281 165.73 242.308 165.724C242.335 165.717 242.361 165.713 242.389 165.713C242.429 165.728 242.459 165.747 242.479 165.774C242.5 165.801 242.517 165.841 242.531 165.895V174.489" fill="#115A5C"/>
<path d="M251.284 175.502V166.26C251.284 166.193 251.294 166.139 251.315 166.098C251.334 166.056 251.371 166.031 251.426 166.016L251.872 165.916L252.519 165.753C252.534 165.753 252.557 165.749 252.59 165.743C252.624 165.737 252.655 165.733 252.682 165.733C252.723 165.733 252.753 165.749 252.773 165.784C252.793 165.818 252.81 165.862 252.824 165.916V171.407L252.763 173.394H252.824C253.095 172.853 253.3 172.448 253.442 172.179C253.583 171.908 253.702 171.692 253.796 171.53L256.897 166.118C256.91 166.091 256.927 166.071 256.947 166.056C256.968 166.045 256.991 166.031 257.018 166.016L258.112 165.753C258.139 165.753 258.166 165.753 258.195 165.753C258.22 165.753 258.247 165.747 258.275 165.733C258.315 165.733 258.345 165.749 258.366 165.784C258.385 165.818 258.403 165.862 258.416 165.916V175.502C258.416 175.596 258.396 175.66 258.356 175.694C258.315 175.729 258.255 175.744 258.174 175.744H257.12C257.025 175.744 256.958 175.729 256.916 175.694C256.876 175.66 256.862 175.596 256.876 175.502V170.355L256.937 168.388H256.876C256.674 168.767 256.488 169.12 256.319 169.452C256.15 169.783 256.012 170.043 255.904 170.232L252.804 175.644C252.776 175.684 252.75 175.711 252.723 175.725C252.696 175.738 252.648 175.744 252.581 175.744H251.527C251.432 175.744 251.368 175.729 251.334 175.694C251.3 175.66 251.284 175.596 251.284 175.502" fill="#115A5C"/>
<path d="M265.165 166.989C264.341 166.989 263.74 167.331 263.362 168.013C262.984 168.695 262.794 169.652 262.794 170.881C262.794 172.125 262.984 173.083 263.362 173.758C263.74 174.435 264.341 174.772 265.165 174.772C265.976 174.772 266.573 174.435 266.959 173.758C267.342 173.083 267.536 172.125 267.536 170.881C267.521 169.652 267.327 168.695 266.949 168.013C266.569 167.331 265.976 166.989 265.165 166.989V166.989ZM265.165 165.733C266.354 165.733 267.319 166.175 268.062 167.061C268.805 167.945 269.183 169.22 269.197 170.881C269.197 172.557 268.823 173.83 268.072 174.702C267.323 175.571 266.354 176.014 265.165 176.028C263.961 176.028 262.989 175.59 262.247 174.711C261.504 173.834 261.132 172.557 261.132 170.881C261.132 169.22 261.504 167.949 262.247 167.072C262.989 166.193 263.961 165.747 265.165 165.733" fill="#115A5C"/>
<path d="M273.453 171.367V175.502C273.453 175.596 273.432 175.66 273.391 175.694C273.351 175.729 273.289 175.744 273.208 175.744H272.155C272.06 175.744 271.997 175.729 271.963 175.694C271.928 175.66 271.91 175.596 271.91 175.5V166.241C271.91 166.173 271.922 166.118 271.943 166.078C271.963 166.038 271.999 166.01 272.055 165.998L272.501 165.895L273.147 165.733C273.16 165.733 273.186 165.73 273.218 165.724C273.253 165.717 273.283 165.713 273.31 165.713C273.351 165.713 273.381 165.73 273.401 165.764C273.421 165.797 273.438 165.841 273.453 165.895V170.111H277.364V166.242C277.364 166.174 277.374 166.12 277.393 166.08C277.414 166.038 277.449 166.011 277.504 165.998L278.598 165.733C278.627 165.733 278.654 165.73 278.679 165.724C278.707 165.717 278.735 165.713 278.762 165.713C278.802 165.713 278.833 165.73 278.852 165.764C278.873 165.797 278.891 165.841 278.903 165.895V175.5C278.891 175.596 278.865 175.66 278.833 175.694C278.797 175.729 278.741 175.744 278.659 175.744H277.606C277.512 175.744 277.445 175.729 277.404 175.694C277.364 175.66 277.348 175.596 277.364 175.502V171.367H273.453" fill="#115A5C"/>
<path d="M283.806 171.367V175.502C283.806 175.596 283.787 175.66 283.746 175.694C283.704 175.729 283.644 175.744 283.564 175.744H282.509C282.415 175.744 282.35 175.729 282.317 175.694C282.283 175.66 282.266 175.596 282.266 175.5V166.241C282.266 166.173 282.277 166.118 282.296 166.078C282.317 166.038 282.354 166.01 282.408 165.998L282.855 165.895L283.503 165.733C283.516 165.733 283.539 165.73 283.573 165.724C283.608 165.717 283.637 165.713 283.665 165.713C283.705 165.713 283.735 165.73 283.756 165.764C283.777 165.797 283.792 165.841 283.806 165.895V170.111H287.717V166.242C287.717 166.174 287.727 166.12 287.748 166.08C287.767 166.038 287.805 166.011 287.859 165.998L288.953 165.733C288.98 165.733 289.007 165.73 289.034 165.724C289.061 165.717 289.088 165.713 289.115 165.713C289.157 165.713 289.186 165.73 289.207 165.764C289.226 165.797 289.244 165.841 289.257 165.895V175.5C289.244 175.596 289.22 175.66 289.186 175.694C289.153 175.729 289.096 175.744 289.013 175.744H287.961C287.867 175.744 287.798 175.729 287.758 175.694C287.717 175.66 287.704 175.596 287.717 175.502V171.367H283.806" fill="#115A5C"/>
<path d="M296.004 166.989C295.18 166.989 294.579 167.331 294.201 168.013C293.823 168.695 293.634 169.652 293.634 170.881C293.634 172.125 293.823 173.083 294.201 173.758C294.579 174.435 295.18 174.772 296.004 174.772C296.814 174.772 297.413 174.435 297.798 173.758C298.183 173.083 298.375 172.125 298.375 170.881C298.361 169.652 298.166 168.695 297.788 168.013C297.409 167.331 296.814 166.989 296.004 166.989V166.989ZM296.004 165.733C297.192 165.733 298.158 166.175 298.901 167.061C299.644 167.945 300.022 169.22 300.036 170.881C300.036 172.557 299.662 173.83 298.911 174.702C298.162 175.571 297.192 176.014 296.004 176.028C294.802 176.028 293.83 175.59 293.085 174.711C292.342 173.834 291.971 172.557 291.971 170.881C291.971 169.22 292.342 167.949 293.085 167.072C293.83 166.193 294.802 165.747 296.004 165.733" fill="#115A5C"/>
<path d="M302.124 171.164V170.132C302.112 170.049 302.124 169.992 302.166 169.959C302.206 169.925 302.273 169.902 302.368 169.888H306.947C307.028 169.888 307.089 169.908 307.129 169.948C307.169 169.988 307.19 170.049 307.19 170.132V171.164C307.177 171.259 307.153 171.326 307.119 171.367C307.085 171.407 307.028 171.422 306.947 171.407H302.368C302.273 171.407 302.208 171.391 302.175 171.357C302.141 171.324 302.124 171.259 302.124 171.164" fill="#115A5C"/>
<path d="M311.446 167.274V175.502C311.446 175.596 311.425 175.66 311.385 175.694C311.344 175.729 311.284 175.744 311.202 175.744H310.149C310.054 175.744 309.99 175.729 309.956 175.694C309.923 175.66 309.906 175.596 309.906 175.502V166.26C309.906 166.179 309.923 166.121 309.956 166.087C309.99 166.055 310.054 166.031 310.149 166.016H316.451C316.532 166.016 316.589 166.037 316.623 166.077C316.657 166.118 316.68 166.179 316.693 166.26V175.502C316.693 175.596 316.674 175.66 316.632 175.694C316.592 175.729 316.532 175.744 316.451 175.744H315.397C315.303 175.744 315.234 175.729 315.194 175.694C315.154 175.66 315.14 175.596 315.154 175.502V167.274H311.446" fill="#115A5C"/>
<path d="M321.737 168.084V174.002C322.075 174.204 322.438 174.367 322.822 174.489C323.208 174.609 323.556 174.67 323.867 174.67C324.582 174.67 325.105 174.407 325.437 173.88C325.767 173.354 325.933 172.319 325.933 170.78C325.92 169.374 325.751 168.408 325.426 167.882C325.103 167.354 324.602 167.091 323.928 167.091C323.63 167.105 323.294 167.192 322.924 167.354C322.551 167.517 322.158 167.761 321.737 168.084ZM320.199 179.777V168.651C320.185 168.219 320.141 167.865 320.066 167.588C319.992 167.31 319.881 167.037 319.733 166.766C319.638 166.618 319.59 166.538 319.59 166.524C319.59 166.511 319.59 166.496 319.59 166.484C319.59 166.471 319.594 166.453 319.6 166.432C319.608 166.413 319.638 166.382 319.692 166.34L320.562 165.793C320.631 165.753 320.691 165.737 320.746 165.743C320.8 165.75 320.854 165.782 320.908 165.835C321.016 165.97 321.121 166.135 321.222 166.33C321.323 166.527 321.401 166.726 321.455 166.929L321.618 166.809C322.117 166.442 322.58 166.173 323.005 165.997C323.431 165.822 323.853 165.733 324.271 165.733C325.312 165.747 326.125 166.189 326.714 167.061C327.3 167.932 327.595 169.185 327.595 170.82C327.582 172.496 327.264 173.782 326.643 174.68C326.021 175.579 325.122 176.028 323.947 176.028C323.542 176.028 323.15 175.968 322.772 175.845C322.394 175.725 322.05 175.556 321.737 175.339V179.474C321.726 179.528 321.705 179.578 321.677 179.626C321.651 179.672 321.618 179.703 321.576 179.716L320.604 179.96C320.428 180 320.314 180.004 320.259 179.97C320.205 179.936 320.185 179.871 320.199 179.777Z" fill="#115A5C"/>
<path d="M334.809 173.515V170.9H334.505C333.425 170.915 332.573 171.108 331.952 171.48C331.33 171.851 331.027 172.394 331.04 173.11C331.04 173.624 331.175 174.029 331.445 174.327C331.716 174.623 332.066 174.772 332.498 174.772C332.822 174.772 333.183 174.667 333.583 174.457C333.982 174.248 334.349 173.974 334.686 173.636L334.809 173.515ZM334.809 169.645V168.915C334.794 168.253 334.646 167.783 334.362 167.506C334.08 167.23 333.661 167.091 333.107 167.091C332.755 167.091 332.373 167.141 331.962 167.242C331.549 167.345 331.182 167.469 330.858 167.617C330.722 167.686 330.641 167.722 330.614 167.728C330.587 167.736 330.566 167.74 330.553 167.74C330.512 167.753 330.476 167.75 330.441 167.728C330.408 167.709 330.391 167.678 330.391 167.638L330.088 166.828C330.046 166.734 330.054 166.649 330.108 166.574C330.161 166.5 330.297 166.416 330.512 166.321C330.958 166.146 331.414 166.004 331.881 165.895C332.346 165.787 332.816 165.733 333.288 165.733C334.289 165.733 335.048 165.973 335.568 166.453C336.088 166.932 336.349 167.617 336.349 168.51V173.11C336.349 173.354 336.369 173.617 336.409 173.901C336.45 174.183 336.51 174.407 336.592 174.569C336.618 174.65 336.659 174.752 336.714 174.872C336.768 174.995 336.822 175.084 336.876 175.137C336.916 175.204 336.942 175.258 336.956 175.299C336.956 175.326 336.946 175.35 336.926 175.369C336.906 175.39 336.876 175.413 336.835 175.441L335.984 175.968C335.875 176.022 335.785 176.022 335.71 175.968C335.637 175.913 335.551 175.805 335.457 175.644C335.363 175.495 335.295 175.373 335.255 175.279C335.215 175.184 335.153 175.001 335.072 174.732L335.052 174.67L334.971 174.752C334.471 175.252 334.005 175.59 333.573 175.765C333.139 175.94 332.693 176.028 332.235 176.028C331.398 176.014 330.729 175.759 330.228 175.258C329.729 174.759 329.485 174.063 329.5 173.171C329.5 172.319 329.749 171.62 330.249 171.073C330.749 170.526 331.452 170.144 332.357 169.928C332.667 169.861 333.035 169.796 333.461 169.736C333.886 169.675 334.228 169.645 334.485 169.645H334.809" fill="#115A5C"/>
<path d="M341.151 171.307V174.489H343.056C343.623 174.489 344.062 174.35 344.372 174.073C344.682 173.795 344.838 173.408 344.838 172.908C344.838 172.394 344.69 172.002 344.393 171.732C344.095 171.462 343.65 171.321 343.056 171.307H341.151ZM341.151 167.274V170.049H343.026C343.488 170.049 343.859 169.919 344.138 169.656C344.415 169.391 344.556 169.036 344.556 168.59C344.556 168.172 344.411 167.851 344.127 167.628C343.841 167.405 343.454 167.287 342.964 167.274H341.151ZM339.854 166.016H343.066C344.055 166.031 344.793 166.247 345.282 166.665C345.769 167.083 346.014 167.706 346.014 168.529C346 169.044 345.873 169.476 345.634 169.827C345.393 170.179 345.068 170.435 344.656 170.597C345.211 170.746 345.635 171.029 345.932 171.447C346.23 171.867 346.378 172.367 346.378 172.948C346.365 173.812 346.071 174.494 345.497 174.995C344.923 175.495 344.142 175.744 343.157 175.744H339.853C339.759 175.744 339.694 175.729 339.661 175.694C339.627 175.66 339.61 175.596 339.61 175.502V166.26C339.61 166.179 339.627 166.121 339.661 166.087C339.694 166.055 339.759 166.031 339.854 166.016" fill="#115A5C"/>
<path d="M352.6 166.989C351.776 166.989 351.175 167.331 350.797 168.013C350.419 168.695 350.23 169.652 350.23 170.881C350.23 172.125 350.419 173.083 350.797 173.758C351.175 174.435 351.776 174.772 352.6 174.772C353.41 174.772 354.009 174.435 354.394 173.758C354.779 173.083 354.971 172.125 354.971 170.881C354.957 169.652 354.762 168.695 354.384 168.013C354.005 167.331 353.41 166.989 352.6 166.989V166.989ZM352.6 165.733C353.788 165.733 354.754 166.175 355.497 167.061C356.24 167.945 356.618 169.22 356.632 170.881C356.632 172.557 356.258 173.83 355.508 174.702C354.758 175.571 353.788 176.014 352.6 176.028C351.397 176.028 350.426 175.59 349.681 174.711C348.939 173.834 348.567 172.557 348.567 170.881C348.567 169.22 348.939 167.949 349.681 167.072C350.426 166.193 351.397 165.747 352.6 165.733" fill="#115A5C"/>
<path d="M360.887 171.307V174.489H362.791C363.36 174.489 363.798 174.35 364.109 174.073C364.419 173.795 364.575 173.408 364.575 172.908C364.575 172.394 364.427 172.002 364.13 171.732C363.832 171.462 363.386 171.321 362.791 171.307H360.887ZM360.887 167.274V170.049H362.763C363.223 170.049 363.595 169.919 363.873 169.656C364.152 169.391 364.292 169.036 364.292 168.59C364.292 168.172 364.148 167.851 363.863 167.628C363.578 167.405 363.191 167.287 362.701 167.274H360.887ZM359.591 166.016H362.803C363.792 166.031 364.53 166.247 365.019 166.665C365.506 167.083 365.75 167.706 365.75 168.529C365.737 169.044 365.609 169.476 365.369 169.827C365.13 170.179 364.805 170.435 364.393 170.597C364.946 170.746 365.371 171.029 365.669 171.447C365.965 171.867 366.115 172.367 366.115 172.948C366.102 173.812 365.807 174.494 365.234 174.995C364.66 175.495 363.878 175.744 362.894 175.744H359.59C359.496 175.744 359.431 175.729 359.398 175.694C359.364 175.66 359.347 175.596 359.347 175.502V166.26C359.347 166.179 359.364 166.121 359.398 166.087C359.431 166.055 359.496 166.031 359.591 166.016" fill="#115A5C"/>
<path d="M373.533 173.515V170.9H373.228C372.147 170.915 371.296 171.108 370.676 171.48C370.053 171.851 369.75 172.394 369.764 173.11C369.764 173.624 369.898 174.029 370.167 174.327C370.438 174.623 370.79 174.772 371.223 174.772C371.546 174.772 371.907 174.667 372.306 174.457C372.705 174.248 373.072 173.974 373.41 173.636L373.533 173.515ZM373.533 169.645V168.915C373.518 168.253 373.37 167.783 373.086 167.506C372.803 167.23 372.383 167.091 371.83 167.091C371.479 167.091 371.097 167.141 370.686 167.242C370.272 167.345 369.904 167.469 369.581 167.617C369.446 167.686 369.364 167.722 369.338 167.728C369.31 167.736 369.29 167.74 369.277 167.74C369.236 167.753 369.199 167.75 369.165 167.728C369.13 167.709 369.115 167.678 369.115 167.638L368.811 166.828C368.769 166.734 368.777 166.649 368.831 166.574C368.884 166.5 369.021 166.416 369.236 166.321C369.681 166.146 370.138 166.004 370.603 165.895C371.069 165.787 371.54 165.733 372.012 165.733C373.011 165.733 373.771 165.973 374.291 166.453C374.812 166.932 375.073 167.617 375.073 168.51V173.11C375.073 173.354 375.093 173.617 375.133 173.901C375.173 174.183 375.234 174.407 375.315 174.569C375.342 174.65 375.382 174.752 375.436 174.872C375.491 174.995 375.545 175.084 375.599 175.137C375.639 175.204 375.666 175.258 375.68 175.299C375.68 175.326 375.67 175.35 375.649 175.369C375.63 175.39 375.599 175.413 375.559 175.441L374.708 175.968C374.599 176.022 374.508 176.022 374.434 175.968C374.359 175.913 374.276 175.805 374.181 175.644C374.086 175.495 374.019 175.373 373.978 175.279C373.938 175.184 373.876 175.001 373.796 174.732L373.775 174.67L373.695 174.752C373.195 175.252 372.729 175.59 372.297 175.765C371.864 175.94 371.417 176.028 370.958 176.028C370.121 176.014 369.453 175.759 368.952 175.258C368.452 174.759 368.21 174.063 368.222 173.171C368.222 172.319 368.473 171.62 368.972 171.073C369.472 170.526 370.175 170.144 371.079 169.928C371.39 169.861 371.759 169.796 372.185 169.736C372.61 169.675 372.951 169.645 373.209 169.645H373.533" fill="#115A5C"/>
<path d="M383.014 170.334V167.274H381.616C380.927 167.274 380.424 167.405 380.107 167.668C379.79 167.932 379.631 168.293 379.631 168.753C379.631 169.253 379.804 169.641 380.147 169.919C380.493 170.195 380.981 170.334 381.616 170.334H383.014ZM381.597 166.017H384.312C384.393 166.017 384.45 166.037 384.485 166.077C384.517 166.118 384.541 166.179 384.554 166.26V175.502C384.554 175.596 384.535 175.66 384.495 175.694C384.454 175.729 384.393 175.744 384.312 175.744H383.258C383.163 175.744 383.099 175.729 383.066 175.694C383.032 175.66 383.014 175.596 383.014 175.502V171.591H381.92C381.488 171.603 381.184 171.692 381.009 171.854C380.833 172.016 380.698 172.287 380.604 172.665L380.28 173.84C380.063 174.598 379.875 175.089 379.712 175.319C379.55 175.55 379.328 175.719 379.043 175.826C378.882 175.88 378.698 175.924 378.496 175.957C378.293 175.992 378.064 176.014 377.807 176.028C377.699 176.028 377.628 176.011 377.594 175.978C377.561 175.944 377.536 175.907 377.523 175.867L377.26 174.955C377.233 174.872 377.227 174.813 377.241 174.772C377.253 174.732 377.342 174.698 377.504 174.67L377.747 174.63C377.882 174.617 377.997 174.594 378.091 174.559C378.185 174.525 378.266 174.481 378.333 174.427C378.388 174.387 378.446 174.31 378.506 174.194C378.567 174.079 378.617 173.968 378.658 173.86L379.125 172.34C379.205 172.043 379.33 171.797 379.499 171.6C379.667 171.405 379.867 171.253 380.097 171.144V171.084C379.462 170.975 378.968 170.702 378.617 170.262C378.266 169.823 378.091 169.307 378.091 168.713C378.091 167.915 378.381 167.267 378.963 166.766C379.543 166.268 380.42 166.017 381.597 166.017" fill="#115A5C"/>
<path d="M394.16 167.274V175.502C394.16 175.596 394.139 175.66 394.099 175.694C394.058 175.729 393.997 175.744 393.916 175.744H392.862C392.768 175.744 392.703 175.729 392.67 175.694C392.636 175.66 392.618 175.596 392.618 175.502V166.26C392.618 166.179 392.636 166.121 392.67 166.087C392.703 166.055 392.768 166.031 392.862 166.016H399.164C399.245 166.016 399.302 166.037 399.336 166.077C399.37 166.118 399.394 166.179 399.407 166.26V175.502C399.407 175.596 399.387 175.66 399.346 175.694C399.306 175.729 399.245 175.744 399.164 175.744H398.11C398.016 175.744 397.948 175.729 397.908 175.694C397.868 175.66 397.854 175.596 397.868 175.502V167.274H394.16" fill="#115A5C"/>
<path d="M406.156 166.989C405.332 166.989 404.73 167.331 404.352 168.013C403.974 168.695 403.785 169.652 403.785 170.881C403.785 172.125 403.974 173.083 404.352 173.758C404.73 174.435 405.332 174.772 406.156 174.772C406.965 174.772 407.563 174.435 407.949 173.758C408.333 173.083 408.525 172.125 408.525 170.881C408.513 169.652 408.317 168.695 407.939 168.013C407.559 167.331 406.965 166.989 406.156 166.989V166.989ZM406.156 165.733C407.343 165.733 408.309 166.175 409.053 167.061C409.796 167.945 410.174 169.22 410.188 170.881C410.188 172.557 409.813 173.83 409.062 174.702C408.313 175.571 407.343 176.014 406.156 176.028C404.953 176.028 403.98 175.59 403.237 174.711C402.494 173.834 402.123 172.557 402.123 170.881C402.123 169.22 402.494 167.949 403.237 167.072C403.98 166.193 404.953 165.747 406.156 165.733Z" fill="#115A5C"/>
<path d="M417.968 167.274H415.232V168.611C415.218 169.786 415.133 170.854 414.978 171.812C414.824 172.773 414.571 173.665 414.22 174.489H417.968V167.274ZM414.097 166.016H419.223C419.319 166.016 419.386 166.037 419.427 166.077C419.468 166.118 419.494 166.193 419.508 166.3V174.489H420.441C420.521 174.501 420.585 174.519 420.633 174.539C420.679 174.559 420.71 174.63 420.723 174.752V178.48C420.723 178.562 420.704 178.622 420.664 178.664C420.623 178.704 420.562 178.724 420.481 178.724H419.427C419.331 178.71 419.266 178.687 419.223 178.653C419.183 178.62 419.169 178.562 419.183 178.48V175.744H413.287V178.48C413.287 178.562 413.267 178.622 413.227 178.664C413.185 178.704 413.125 178.724 413.044 178.724H411.99C411.896 178.71 411.829 178.687 411.787 178.653C411.747 178.62 411.733 178.562 411.747 178.48V174.752C411.733 174.63 411.754 174.559 411.808 174.539C411.861 174.519 411.936 174.501 412.03 174.489H412.639C413.085 173.582 413.392 172.647 413.561 171.681C413.73 170.716 413.814 169.22 413.814 167.192V166.3C413.799 166.179 413.817 166.106 413.864 166.077C413.912 166.051 413.989 166.031 414.097 166.016" fill="#115A5C"/>
<path d="M427.998 167.274H425.262V168.611C425.248 169.786 425.164 170.854 425.009 171.812C424.855 172.773 424.6 173.665 424.25 174.489H427.998V167.274ZM424.127 166.016H429.254C429.348 166.016 429.417 166.037 429.457 166.077C429.498 166.118 429.525 166.193 429.538 166.3V174.489H430.47C430.552 174.501 430.615 174.519 430.664 174.539C430.71 174.559 430.74 174.63 430.754 174.752V178.48C430.754 178.562 430.734 178.622 430.694 178.664C430.654 178.704 430.592 178.724 430.51 178.724H429.457C429.362 178.71 429.295 178.687 429.254 178.653C429.214 178.62 429.2 178.562 429.214 178.48V175.744H423.317V178.48C423.317 178.562 423.298 178.622 423.257 178.664C423.215 178.704 423.155 178.724 423.075 178.724H422.02C421.925 178.71 421.858 178.687 421.817 178.653C421.777 178.62 421.763 178.562 421.777 178.48V174.752C421.763 174.63 421.785 174.559 421.839 174.539C421.892 174.519 421.965 174.501 422.061 174.489H422.668C423.115 173.582 423.422 172.647 423.591 171.681C423.76 170.716 423.843 169.22 423.843 167.192V166.3C423.83 166.179 423.847 166.106 423.894 166.077C423.943 166.051 424.019 166.031 424.127 166.016" fill="#115A5C"/>
<path d="M433.815 169.948H438.191C438.191 169.652 438.162 169.35 438.1 169.047C438.039 168.744 437.962 168.47 437.866 168.226C437.692 167.834 437.452 167.534 437.148 167.325C436.845 167.116 436.482 167.003 436.064 166.989C435.376 166.989 434.831 167.256 434.433 167.79C434.034 168.324 433.828 169.044 433.815 169.948V169.948ZM439.224 173.96L439.589 174.872C439.589 174.901 439.592 174.924 439.6 174.945C439.606 174.965 439.61 174.981 439.61 174.995C439.596 175.063 439.533 175.134 439.418 175.208C439.303 175.283 439.116 175.379 438.861 175.502C438.482 175.664 438.1 175.788 437.715 175.877C437.33 175.964 436.949 176.014 436.571 176.028C435.234 176.028 434.162 175.586 433.358 174.702C432.555 173.816 432.154 172.543 432.154 170.881C432.14 169.287 432.515 168.03 433.278 167.112C434.041 166.193 435.017 165.733 436.205 165.733C437.354 165.747 438.244 166.162 438.881 166.979C439.516 167.797 439.84 169.057 439.854 170.76V170.86C439.84 170.982 439.819 171.069 439.793 171.124C439.765 171.178 439.711 171.205 439.631 171.205H433.815V171.307C433.815 172.307 434.068 173.117 434.575 173.738C435.08 174.36 435.76 174.67 436.611 174.67C436.949 174.67 437.292 174.617 437.644 174.509C437.995 174.4 438.395 174.218 438.84 173.96C438.907 173.934 438.955 173.914 438.982 173.901C439.009 173.887 439.043 173.874 439.084 173.86C439.097 173.86 439.11 173.86 439.124 173.86C439.137 173.874 439.155 173.887 439.174 173.901C439.195 173.914 439.21 173.934 439.224 173.96" fill="#115A5C"/>
<path d="M444.107 168.084V174.002C444.444 174.204 444.807 174.367 445.191 174.489C445.577 174.609 445.925 174.67 446.236 174.67C446.951 174.67 447.474 174.407 447.806 173.88C448.136 173.354 448.302 172.319 448.302 170.78C448.289 169.374 448.12 168.408 447.795 167.882C447.472 167.354 446.971 167.091 446.297 167.091C445.999 167.105 445.663 167.192 445.293 167.354C444.92 167.517 444.527 167.761 444.107 168.084ZM442.568 179.777V168.651C442.554 168.219 442.51 167.865 442.435 167.588C442.361 167.31 442.25 167.037 442.102 166.766C442.007 166.618 441.959 166.538 441.959 166.524C441.959 166.511 441.959 166.496 441.959 166.484C441.959 166.471 441.963 166.453 441.969 166.432C441.977 166.413 442.007 166.382 442.061 166.34L442.932 165.793C443 165.753 443.06 165.737 443.115 165.743C443.169 165.75 443.223 165.782 443.277 165.835C443.386 165.97 443.49 166.135 443.591 166.33C443.692 166.527 443.77 166.726 443.824 166.929L443.987 166.809C444.486 166.442 444.949 166.173 445.374 165.997C445.8 165.822 446.222 165.733 446.64 165.733C447.681 165.747 448.494 166.189 449.083 167.061C449.67 167.932 449.964 169.185 449.964 170.82C449.951 172.496 449.633 173.782 449.012 174.68C448.39 175.579 447.491 176.028 446.316 176.028C445.911 176.028 445.519 175.968 445.141 175.845C444.763 175.725 444.419 175.556 444.107 175.339V179.474C444.095 179.528 444.074 179.578 444.047 179.626C444.02 179.672 443.987 179.703 443.945 179.716L442.973 179.96C442.797 180 442.683 180.004 442.628 179.97C442.574 179.936 442.554 179.871 442.568 179.777Z" fill="#115A5C"/>
<path d="M456.833 170.071V166.242C456.82 166.174 456.827 166.12 456.854 166.08C456.881 166.038 456.921 166.011 456.975 165.998L457.4 165.895L458.07 165.733C458.096 165.733 458.124 165.73 458.15 165.724C458.178 165.717 458.204 165.713 458.232 165.713C458.272 165.713 458.302 165.73 458.323 165.764C458.342 165.797 458.359 165.841 458.373 165.895V170.071H459.062C459.414 170.071 459.683 169.986 459.873 169.817C460.063 169.648 460.211 169.368 460.319 168.976L460.582 167.922C460.731 167.327 460.91 166.882 461.119 166.585C461.328 166.287 461.601 166.071 461.939 165.937C462.061 165.895 462.226 165.851 462.436 165.804C462.645 165.757 462.818 165.733 462.953 165.733C463.033 165.733 463.094 165.747 463.135 165.774C463.176 165.801 463.202 165.841 463.216 165.895L463.439 166.809C463.452 166.889 463.442 166.947 463.408 166.979C463.375 167.014 463.296 167.037 463.176 167.051L462.893 167.091C462.716 167.118 462.578 167.159 462.477 167.212C462.374 167.267 462.298 167.341 462.244 167.435C462.204 167.504 462.159 167.602 462.111 167.728C462.064 167.859 462.013 168.016 461.96 168.206L461.737 169.016C461.601 169.49 461.426 169.85 461.209 170.101C460.994 170.351 460.723 170.522 460.399 170.618C460.723 170.712 460.997 170.867 461.22 171.084C461.443 171.3 461.616 171.578 461.737 171.914L462.365 173.86C462.392 173.981 462.436 174.097 462.497 174.204C462.557 174.312 462.622 174.387 462.69 174.427C462.743 174.481 462.818 174.525 462.912 174.559C463.007 174.594 463.127 174.617 463.277 174.63L463.519 174.67C463.668 174.698 463.75 174.732 463.763 174.772C463.776 174.813 463.776 174.872 463.763 174.955L463.5 175.867C463.473 175.907 463.442 175.944 463.408 175.978C463.375 176.011 463.31 176.028 463.216 176.028C462.945 176.014 462.709 175.992 462.507 175.957C462.304 175.924 462.129 175.88 461.981 175.826C461.71 175.719 461.49 175.556 461.322 175.339C461.153 175.124 460.96 174.623 460.744 173.84L460.339 172.401C460.217 172.01 460.068 171.732 459.894 171.57C459.717 171.407 459.447 171.326 459.082 171.326H458.373V175.582C458.359 175.636 458.336 175.677 458.302 175.704C458.269 175.73 458.218 175.744 458.15 175.744H457.055C456.975 175.744 456.917 175.73 456.885 175.704C456.85 175.677 456.833 175.636 456.833 175.582V171.326H456.124C455.746 171.34 455.468 171.425 455.293 171.58C455.118 171.735 454.976 172.01 454.867 172.401L454.462 173.84C454.233 174.623 454.034 175.124 453.865 175.339C453.695 175.556 453.483 175.719 453.227 175.826C453.064 175.88 452.881 175.928 452.68 175.968C452.477 176.008 452.246 176.028 451.991 176.028C451.883 176.014 451.81 175.995 451.778 175.968C451.743 175.94 451.72 175.907 451.706 175.867L451.443 174.955C451.416 174.872 451.409 174.813 451.422 174.772C451.436 174.732 451.524 174.698 451.685 174.67L451.929 174.63C452.063 174.617 452.179 174.594 452.273 174.559C452.369 174.525 452.449 174.481 452.517 174.427C452.571 174.387 452.628 174.312 452.69 174.204C452.751 174.097 452.801 173.981 452.841 173.86L453.469 171.914C453.577 171.578 453.743 171.3 453.966 171.084C454.189 170.867 454.47 170.712 454.807 170.618C454.47 170.522 454.193 170.351 453.976 170.101C453.761 169.85 453.592 169.49 453.469 169.016L453.246 168.206C453.179 168.016 453.122 167.859 453.074 167.728C453.027 167.602 452.989 167.504 452.964 167.435C452.895 167.341 452.81 167.267 452.709 167.212C452.608 167.159 452.477 167.118 452.315 167.091L452.031 167.051C451.894 167.037 451.81 167.014 451.778 166.979C451.743 166.947 451.739 166.889 451.768 166.809L451.991 165.895C451.991 165.841 452.01 165.801 452.052 165.774C452.092 165.747 452.16 165.733 452.254 165.733C452.375 165.733 452.539 165.757 452.751 165.804C452.96 165.851 453.131 165.895 453.267 165.937C453.592 166.071 453.857 166.287 454.068 166.585C454.277 166.882 454.462 167.327 454.625 167.922L454.888 168.976C454.982 169.368 455.124 169.648 455.314 169.817C455.502 169.986 455.779 170.071 456.144 170.071H456.833" fill="#115A5C"/>
<path d="M467.471 171.326V175.582C467.457 175.636 467.433 175.677 467.401 175.704C467.367 175.73 467.315 175.744 467.248 175.744H466.153C466.073 175.744 466.015 175.73 465.98 175.704C465.948 175.677 465.93 175.636 465.93 175.582V166.26C465.93 166.193 465.94 166.139 465.961 166.098C465.98 166.057 466.019 166.031 466.073 166.017L466.478 165.916L467.167 165.753C467.18 165.753 467.201 165.753 467.228 165.753C467.255 165.753 467.282 165.747 467.309 165.733H467.328C467.37 165.747 467.401 165.768 467.421 165.793C467.441 165.822 467.457 165.854 467.471 165.895C467.471 165.908 467.471 165.912 467.471 165.906C467.471 165.898 467.471 165.902 467.471 165.916V170.071H468.342C468.693 170.071 468.964 169.986 469.152 169.817C469.342 169.648 469.49 169.368 469.598 168.976L469.862 167.922C470.01 167.327 470.189 166.882 470.398 166.585C470.608 166.287 470.882 166.071 471.22 165.937C471.342 165.895 471.507 165.851 471.716 165.804C471.925 165.757 472.098 165.733 472.232 165.733C472.315 165.733 472.374 165.747 472.415 165.774C472.455 165.801 472.482 165.841 472.497 165.895L472.718 166.809C472.733 166.889 472.722 166.947 472.689 166.979C472.654 167.014 472.578 167.037 472.455 167.051L472.172 167.091C471.996 167.118 471.861 167.159 471.767 167.212C471.671 167.267 471.598 167.335 471.543 167.415C471.489 167.483 471.439 167.581 471.393 167.709C471.345 167.837 471.295 168.003 471.24 168.206L471.017 169.016C470.882 169.49 470.705 169.85 470.49 170.101C470.273 170.351 470.005 170.522 469.68 170.618C470.005 170.712 470.277 170.867 470.5 171.084C470.723 171.3 470.896 171.578 471.017 171.914L471.645 173.86C471.671 173.981 471.716 174.097 471.777 174.204C471.838 174.312 471.901 174.387 471.969 174.427C472.023 174.481 472.098 174.525 472.192 174.559C472.286 174.594 472.409 174.617 472.557 174.63L472.8 174.67C472.949 174.698 473.029 174.732 473.043 174.772C473.056 174.813 473.056 174.872 473.043 174.955L472.78 175.867C472.752 175.907 472.722 175.944 472.689 175.978C472.654 176.011 472.589 176.028 472.497 176.028C472.226 176.028 471.99 176.008 471.786 175.968C471.585 175.928 471.408 175.88 471.26 175.826C470.99 175.719 470.77 175.556 470.601 175.339C470.433 175.124 470.239 174.623 470.024 173.84L469.619 172.401C469.498 172.01 469.348 171.732 469.173 171.57C468.997 171.407 468.726 171.326 468.363 171.326H467.471" fill="#115A5C"/>
<path d="M479.852 173.515V170.9H479.549C478.468 170.915 477.617 171.108 476.995 171.48C476.374 171.851 476.071 172.394 476.084 173.11C476.084 173.624 476.219 174.029 476.489 174.327C476.759 174.623 477.11 174.772 477.542 174.772C477.866 174.772 478.227 174.667 478.627 174.457C479.026 174.248 479.393 173.974 479.731 173.636L479.852 173.515ZM479.852 169.645V168.915C479.84 168.253 479.69 167.783 479.407 167.506C479.124 167.23 478.705 167.091 478.151 167.091C477.799 167.091 477.419 167.141 477.006 167.242C476.593 167.345 476.225 167.469 475.902 167.617C475.766 167.686 475.685 167.722 475.658 167.728C475.631 167.736 475.61 167.74 475.597 167.74C475.556 167.753 475.52 167.75 475.486 167.728C475.452 167.709 475.435 167.678 475.435 167.638L475.132 166.828C475.09 166.734 475.098 166.649 475.152 166.574C475.205 166.5 475.341 166.416 475.556 166.321C476.002 166.146 476.458 166.004 476.925 165.895C477.39 165.787 477.86 165.733 478.333 165.733C479.333 165.733 480.092 165.973 480.612 166.453C481.132 166.932 481.394 167.617 481.394 168.51V173.11C481.394 173.354 481.413 173.617 481.453 173.901C481.494 174.183 481.555 174.407 481.636 174.569C481.663 174.65 481.703 174.752 481.758 174.872C481.812 174.995 481.866 175.084 481.92 175.137C481.96 175.204 481.987 175.258 482 175.299C482 175.326 481.99 175.35 481.97 175.369C481.95 175.39 481.92 175.413 481.88 175.441L481.027 175.968C480.919 176.022 480.829 176.022 480.754 175.968C480.681 175.913 480.595 175.805 480.501 175.644C480.407 175.495 480.339 175.373 480.299 175.279C480.259 175.184 480.197 175.001 480.116 174.732L480.096 174.67L480.015 174.752C479.516 175.252 479.049 175.59 478.617 175.765C478.183 175.94 477.738 176.028 477.279 176.028C476.442 176.014 475.773 175.759 475.272 175.258C474.773 174.759 474.529 174.063 474.544 173.171C474.544 172.319 474.792 171.62 475.293 171.073C475.793 170.526 476.496 170.144 477.401 169.928C477.711 169.861 478.079 169.796 478.505 169.736C478.93 169.675 479.272 169.645 479.529 169.645H479.852" fill="#115A5C"/>
<path d="M105.855 126.838L104.959 125.663L111.809 121.722L120.195 120.579L119.158 123.648L105.855 126.838" fill="#1766B5"/>
</svg>
