<svg width="164" height="198" viewBox="0 0 164 198" fill="none" xmlns="http://www.w3.org/2000/svg">
<path d="M73.9109 198L75.1372 151.58L63.9805 139.71L42.8778 143.63L10.0866 108.547L13.6981 82.5666L6.02669 65.2596L9.06365 37.0214L10.8821 37.2174L7.89732 64.9666L15.5809 82.2983L12.0176 107.932L43.5282 141.643L64.6275 137.725L76.9842 150.872L75.809 195.379L82.1978 193.106L91.6866 194.31L96.5299 192.611L100.941 193.608L91.846 185.073L90.8681 155.959L92.3679 148.69L107.193 127.591L115.38 137.537L123.035 133.113L132.715 132.047L142.929 128.409L144.897 119.042H152.341L156.709 112.339L157.464 100.293L161.11 96.8809L161.972 92.3435L157.955 78.8454L159.708 78.3222L163.851 92.2461L162.795 97.8113L159.244 101.136L158.504 112.936L153.33 120.877H146.381L144.507 129.791L133.02 133.859L123.616 134.891L114.954 139.9L107.308 130.608L94.0813 149.435L92.7023 156.115L93.6473 184.252L107.104 196.882L96.6382 194.513L91.8838 196.182L82.4 194.98L73.9109 198" fill="url(#paint0_linear)"/>
<path d="M159.667 78.9584L157.997 78.2092L161.823 69.6396L148.21 55.7535L152.275 41.6152L144.649 35.0939L137.525 31.5223V24.0422L134.574 20.0293L123.96 18.6122L102.977 4.98161L96.6145 6.1223L96.2932 4.31891L103.365 3.0513L124.609 16.8497L135.585 18.3175L139.353 23.4387V30.3901L145.75 33.6289L154.358 40.9878L150.264 55.2303L164 69.2484L159.667 78.9584" fill="url(#paint1_linear)"/>
<path d="M23.5238 30.7708L22.5503 29.2198L28.7341 25.3169L30.9029 17.8269L38.164 13.8802L49.5472 15.3763L49.3092 17.1938L38.5141 15.7753L32.4456 19.0747L30.2953 26.4956L23.5238 30.7708" fill="url(#paint2_linear)"/>
<path d="M37.1873 31.6703L29.039 26.6888L29.9904 25.125L33.8032 27.4544L30.8095 18.749L32.539 18.1511L37.1873 31.6703" fill="url(#paint3_linear)"/>
<path d="M35.8771 50.1134L24.5896 40.0642L25.8037 38.6937L37.0911 48.7428L35.8771 50.1134Z" fill="url(#paint4_linear)"/>
<path d="M9.39049 94.805L7.58578 94.5104L14.3816 52.736L36.3127 48.5271L36.6561 50.3291L15.9803 54.2941L9.39049 94.805" fill="url(#paint5_linear)"/>
<path d="M34.6239 134.8L14.6931 113.477L15.7676 106.533L7.39186 94.6937L49.789 25.7497L51.3447 26.7113L9.58388 94.6232L17.6882 106.08L16.6368 112.876L35.3034 132.847L45.8274 131.295L35.2881 112.928L82.8405 77.1831L122.312 54.3914L123.224 55.979L83.8453 78.7116L37.6807 113.422L48.7522 132.715L34.6239 134.8Z" fill="url(#paint6_linear)"/>
<path d="M14.3102 53.7935L8.65706 35.9977L24.1089 38.2918L22.6618 28.6473H35.4952V30.4803H24.7851L26.2844 40.4675L11.2886 38.241L16.0517 53.2366L14.3102 53.7935" fill="url(#paint7_linear)"/>
<path d="M16.1978 84.3583L14.3701 84.3401L14.686 52.9151L16.5137 52.9334L16.1978 84.3583" fill="url(#paint8_linear)"/>
<path d="M35.6886 30.4592L35.3024 28.6656L50.7146 25.3337L51.1003 27.1273L35.6886 30.4592" fill="url(#paint9_linear)"/>
<path d="M37.3983 116.084L14.8508 83.759L16.3489 82.7086L35.5705 110.265V47.801L83.8635 77.132L82.9159 78.7L37.3983 51.0524V116.084Z" fill="url(#paint10_linear)"/>
<path d="M105.874 26.1078L104.58 24.8135L116.734 12.5999L118.028 13.8943L105.874 26.1078" fill="url(#paint11_linear)"/>
<path d="M71.2261 12.8607L68.5743 1.16464L70.3571 0.757146L73.0088 12.4532L71.2261 12.8607Z" fill="url(#paint12_linear)"/>
<path d="M51.0552 27.0765L50.0784 25.5269L69.9713 12.9327L61.9478 10.3636L51.7013 21.7537L50.3438 20.5256L61.3807 8.25704L74.2637 12.3827L51.0552 27.0765Z" fill="url(#paint13_linear)"/>
<path d="M51.1969 26.3617L49.3867 26.0994L50.0878 21.2222L48.5599 16.5706L50.2965 15.9981L51.9578 21.0572L51.1969 26.3617" fill="url(#paint14_linear)"/>
<path d="M72.7144 13.3514L71.5206 11.964L82.601 2.38575L94.2378 8.49959L93.3891 10.1239L82.8537 4.58819L72.7144 13.3514" fill="url(#paint15_linear)"/>
<path d="M40.0128 114.093H15.665V112.26H32.956L21.8734 106.088L7.55176 95.4709L6.03383 64.8421L24.5671 38.7148L48.7985 15.6201L54.1405 11.2195L61.1406 8.52917L69.1105 -1.75762e-05L88.999 2.1841L94.0231 8.14141L102.722 3.21904L103.62 4.81658L93.6045 10.482L88.075 3.92687L69.8203 1.92325L62.1879 10.0915L54.9355 12.8777L50.013 16.9864L25.8911 39.9824L7.89072 65.3835L9.33503 94.5136L22.8613 104.548L40.0128 114.093Z" fill="url(#paint16_linear)"/>
<path d="M16.8922 107.208L16.5636 105.404L22.1531 104.384L22.4817 106.187L16.8922 107.208Z" fill="url(#paint17_linear)"/>
<path d="M75.0355 185.957L65.4275 194.16L80.5386 193.233L75.0355 185.957ZM60.0711 196.329L75.3222 183.305L84.059 194.853L60.0711 196.329Z" fill="url(#paint18_linear)"/>
<path d="M82.9087 194.726L81.6891 193.36L92.1371 183.98L93.3567 185.347L82.9087 194.726" fill="url(#paint19_linear)"/>
<path d="M75.6793 194.599L74.1785 193.553L77.7148 188.456L79.2163 189.502L75.6793 194.599Z" fill="url(#paint20_linear)"/>
<path d="M92.6958 195.33L90.8745 195.163L92.1618 180.996L97.4232 193.2L95.7448 193.926L93.3314 188.329L92.6958 195.33" fill="url(#paint21_linear)"/>
<path d="M79.3405 189.245L77.5906 188.711L78.9647 184.186L75.4997 185.489L74.8581 183.773L81.7928 181.166L79.3405 189.245Z" fill="url(#paint22_linear)"/>
<path d="M92.6024 185.567L78.4142 183.29L90.9811 171.265L82.1071 162.554L81.9362 162.645L75.28 151.704L76.8413 150.747L82.5954 160.207L91.2724 155.526L92.1387 157.141L83.7931 161.643L93.6109 171.282L82.3433 182.062L92.8907 183.758L92.6024 185.567Z" fill="url(#paint23_linear)"/>
<path d="M83.7756 154.758L81.7968 177.04L90.5329 156.639L83.7756 154.758ZM78.9607 188.312L80.6304 169.508L76.0519 184.252L74.306 183.706L83.3344 154.634L74.2746 152.108L82.7548 143.913L84.0238 145.232L77.8467 151.203L83.8782 152.882L83.9673 152.596L83.941 152.902L93.0374 155.436L78.9607 188.312" fill="url(#paint24_linear)"/>
<path d="M84.3035 145.997V153.094L91.2169 149.155L84.3035 145.997ZM83.1113 161.496L81.3104 161.178L82.4752 154.587V143.15L95.2329 148.972L84.2151 155.254L83.1113 161.496" fill="url(#paint25_linear)"/>
<path d="M92.4541 149.556L87.4767 141.743L98.8302 140.17L99.0801 141.986L90.5532 143.166L93.9951 148.569L92.4541 149.556" fill="url(#paint26_linear)"/>
<path d="M138.361 121.224L102.498 118.138L82.4367 121.218L82.1609 119.406L102.437 116.294L102.546 116.302L138.517 119.397L138.361 121.224Z" fill="url(#paint27_linear)"/>
<path d="M110.561 129.12L123.508 132.928L135.036 122.223L110.561 129.12ZM76.954 151.853L75.1674 151.461L77.7407 139.643L83.5096 143.55L88.4755 141.68L94.9104 134.31L107.161 128.117L107.256 128.144L141.842 118.4L123.989 134.979L107.339 130.08L95.8954 135.863L89.5551 143.229L83.269 145.598L78.952 142.677L76.954 151.853" fill="url(#paint28_linear)"/>
<path d="M69.6669 144.373L68.8336 142.743L93.2941 130.184L96.0952 134.638L98.8795 140.871L97.2094 141.617L94.4867 135.5L92.6408 132.578L69.6669 144.373" fill="url(#paint29_linear)"/>
<path d="M84.1799 145.549L69.1385 144.472L69.2686 142.643L82.5988 143.599L83.4915 137.02L84.0294 132.417L85.8451 132.63L85.3056 137.248L84.1799 145.549" fill="url(#paint30_linear)"/>
<path d="M77.6972 132.928L70.6141 132.192L36.0594 113.986L36.9092 112.364L71.3047 130.487L76.5611 130.981L81.4637 119.938L83.1338 120.683L77.6972 132.928Z" fill="url(#paint31_linear)"/>
<path d="M59.3304 132.908L64.4611 133.691L70.5004 130.628L80.3573 120.937L39.3304 114.549L59.3304 132.908ZM48.2353 136.808L54.3878 138.699L59.9293 135.945L58.5059 134.638L48.2106 133.07L48.2353 136.808ZM77.9543 141.99L64.622 135.659L63.1317 136.4L64.9215 138.042L63.6865 139.394L61.3752 137.274L54.5471 140.666L46.4157 138.166L46.369 130.937L56.0853 132.414L33.6378 111.805L84.2404 119.686L71.4519 132.2L66.6916 134.613L78.7378 140.333L77.9543 141.99" fill="url(#paint32_linear)"/>
<path d="M105.88 26.6945L68.5869 12.2742L93.2693 8.46859L95.0328 5.73739L88.1821 3.5857L88.7271 1.8373L97.8742 4.70668L94.3582 10.1536L75.6481 13.0399L104.574 24.2241L108.391 7.77768L110.172 8.19364L105.88 26.6945" fill="url(#paint33_linear)"/>
<path d="M123.213 55.4757L121.504 54.8228L131.679 28.0988L133.681 20.809L122.931 25.6694L116.574 13.6772L118.189 12.8171L123.742 23.2935L136.478 17.535L133.414 28.6685L123.213 55.4757" fill="url(#paint34_linear)"/>
<path d="M77.4396 141.281L76.075 130.958L84.9057 131.603L92.4348 130.532L101.639 116.808L121.77 55.2938L104.44 25.926L92.1443 8.53484L109.204 7.07264L109.359 8.89862L95.4834 10.0887L105.973 24.9291L123.766 55.0766L103.227 117.725L93.4979 132.232L84.9688 133.445L78.1835 132.949L79.2526 141.041L77.4396 141.281" fill="url(#paint35_linear)"/>
<path d="M105.277 26.3743L105.178 24.5441L122.536 23.6065L123.379 17.6012L125.189 17.8564L124.137 25.3563L105.277 26.3743Z" fill="url(#paint36_linear)"/>
<path d="M133.1 29.145L131.966 27.7082L137.871 23.0227L139.007 24.461L133.1 29.145Z" fill="url(#paint37_linear)"/>
<path d="M93.1106 132.286L92.8221 130.476L105.973 128.375L101.62 117.558L103.316 116.872L108.528 129.825L93.1106 132.286" fill="url(#paint38_linear)"/>
<path d="M83.213 120.333L81.3847 120.287L82.5718 74.1384L103.29 116.814L101.646 117.615L84.2062 81.6963L83.213 120.333" fill="url(#paint39_linear)"/>
<path d="M139.176 120.854L137.703 119.769L155.149 95.9782H162.038V97.8112H156.075L139.176 120.854Z" fill="url(#paint40_linear)"/>
<path d="M146.478 120.322L144.8 119.593L155.968 93.769L158.733 108.822L156.936 109.155L155.258 100.021L146.478 120.322Z" fill="url(#paint41_linear)"/>
<path d="M157.612 101.249L154.87 97.4295L121.848 55.4982L122.448 23.1031L139.353 30.352V40.2912L144.437 33.7614L145.878 34.8894L137.525 45.6168V31.5604L124.225 25.8597L123.688 54.875L156.329 96.3279L159.096 100.177L157.612 101.249" fill="url(#paint42_linear)"/>
<path d="M137.732 121.264L120.92 53.1379L159.838 78.1404L156.871 95.0199L162.425 91.5202L163.397 93.0722L154.355 98.7702L157.826 79.0244L123.797 57.1635L139.146 119.359L145.393 119.053L156.168 113.382L157.019 115.005L145.884 120.865L137.732 121.264Z" fill="url(#paint43_linear)"/>
<path d="M123.328 55.8747L122.208 54.4266L137.879 42.23L139 43.6781L123.328 55.8747Z" fill="url(#paint44_linear)"/>
<path d="M157.988 78.9368L148.393 55.8451L150.081 55.1401L159.675 78.2318L157.988 78.9368" fill="url(#paint45_linear)"/>
<path d="M148.545 56.0905L137.592 43.2974L131.687 28.7714L133.38 28.0791L139.229 42.4683L149.929 54.8919L148.545 56.0905" fill="url(#paint46_linear)"/>
<path d="M138.898 43.7444L137.979 42.1609L147.967 36.3277L148.887 37.9111L138.898 43.7444Z" fill="url(#paint47_linear)"/>
<path d="M10.4123 37.9252L9.53334 36.3163L23.2843 28.7601L24.1633 30.3675L10.4123 37.9252" fill="url(#paint48_linear)"/>
<path d="M7.87807 95.3778L0 89.1649L6.07557 64.8917L7.84895 65.3373L2.06182 88.4599L9.00868 93.9364L7.87807 95.3778Z" fill="url(#paint49_linear)"/>
<path d="M32.1511 19.234L31.198 17.6703L56.4622 2.17846L69.3171 0.054986L69.6138 1.86544L57.1121 3.92971L32.1511 19.234" fill="url(#paint50_linear)"/>
<path d="M51.8771 21.4647L50.1686 20.8118L53.6131 11.7482L55.9018 2.82565L57.6724 3.28251L55.3524 12.3052L51.8771 21.4647Z" fill="url(#paint51_linear)"/>
<path d="M134.968 132.83L133.246 132.217L137.578 120.003L139.301 120.617L134.968 132.83" fill="url(#paint52_linear)"/>
<path d="M82.4883 78.0737L71.2168 12.8142L73.0183 12.5012L84.2903 77.761L82.4883 78.0737" fill="url(#paint53_linear)"/>
<path d="M162.045 69.7381L152.451 41.5955L154.182 41.0032L163.776 69.1455L162.045 69.7381" fill="url(#paint54_linear)"/>
<path d="M43.9156 143.211L42.4893 142.062L46.613 136.913L48.038 138.06L43.9156 143.211Z" fill="url(#paint55_linear)"/>
<defs>
<linearGradient id="paint0_linear" x1="84.9386" y1="-5.35665" x2="84.9385" y2="198.706" gradientUnits="userSpaceOnUse">
<stop stop-color="#47B8EC"/>
<stop offset="0.162437" stop-color="#96DDF8"/>
<stop offset="0.375635" stop-color="#47B8EC"/>
<stop offset="0.690355" stop-color="#2079C8"/>
<stop offset="1" stop-color="#186CBE"/>
</linearGradient>
<linearGradient id="paint1_linear" x1="130.146" y1="-5.35663" x2="130.146" y2="198.708" gradientUnits="userSpaceOnUse">
<stop stop-color="#47B8EC"/>
<stop offset="0.162437" stop-color="#96DDF8"/>
<stop offset="0.375635" stop-color="#47B8EC"/>
<stop offset="0.690355" stop-color="#2079C8"/>
<stop offset="1" stop-color="#186CBE"/>
</linearGradient>
<linearGradient id="paint2_linear" x1="36.0488" y1="-5.3538" x2="36.0488" y2="198.69" gradientUnits="userSpaceOnUse">
<stop stop-color="#47B8EC"/>
<stop offset="0.162437" stop-color="#96DDF8"/>
<stop offset="0.375635" stop-color="#47B8EC"/>
<stop offset="0.690355" stop-color="#2079C8"/>
<stop offset="1" stop-color="#186CBE"/>
</linearGradient>
<linearGradient id="paint3_linear" x1="33.1131" y1="-5.35667" x2="33.1131" y2="198.704" gradientUnits="userSpaceOnUse">
<stop stop-color="#47B8EC"/>
<stop offset="0.162437" stop-color="#96DDF8"/>
<stop offset="0.375635" stop-color="#47B8EC"/>
<stop offset="0.690355" stop-color="#2079C8"/>
<stop offset="1" stop-color="#186CBE"/>
</linearGradient>
<linearGradient id="paint4_linear" x1="30.8408" y1="-5.35525" x2="30.8408" y2="198.705" gradientUnits="userSpaceOnUse">
<stop stop-color="#47B8EC"/>
<stop offset="0.162437" stop-color="#96DDF8"/>
<stop offset="0.375635" stop-color="#47B8EC"/>
<stop offset="0.690355" stop-color="#2079C8"/>
<stop offset="1" stop-color="#186CBE"/>
</linearGradient>
<linearGradient id="paint5_linear" x1="22.1208" y1="-5.35385" x2="22.1208" y2="198.701" gradientUnits="userSpaceOnUse">
<stop stop-color="#47B8EC"/>
<stop offset="0.162437" stop-color="#96DDF8"/>
<stop offset="0.375635" stop-color="#47B8EC"/>
<stop offset="0.690355" stop-color="#2079C8"/>
<stop offset="1" stop-color="#186CBE"/>
</linearGradient>
<linearGradient id="paint6_linear" x1="65.3079" y1="-5.35665" x2="65.3079" y2="198.704" gradientUnits="userSpaceOnUse">
<stop stop-color="#47B8EC"/>
<stop offset="0.162437" stop-color="#96DDF8"/>
<stop offset="0.375635" stop-color="#47B8EC"/>
<stop offset="0.690355" stop-color="#2079C8"/>
<stop offset="1" stop-color="#186CBE"/>
</linearGradient>
<linearGradient id="paint7_linear" x1="22.0762" y1="-5.35526" x2="22.0762" y2="198.705" gradientUnits="userSpaceOnUse">
<stop stop-color="#47B8EC"/>
<stop offset="0.162437" stop-color="#96DDF8"/>
<stop offset="0.375635" stop-color="#47B8EC"/>
<stop offset="0.690355" stop-color="#2079C8"/>
<stop offset="1" stop-color="#186CBE"/>
</linearGradient>
<linearGradient id="paint8_linear" x1="15.4418" y1="-5.35661" x2="15.4418" y2="198.704" gradientUnits="userSpaceOnUse">
<stop stop-color="#47B8EC"/>
<stop offset="0.162437" stop-color="#96DDF8"/>
<stop offset="0.375635" stop-color="#47B8EC"/>
<stop offset="0.690355" stop-color="#2079C8"/>
<stop offset="1" stop-color="#186CBE"/>
</linearGradient>
<linearGradient id="paint9_linear" x1="43.2018" y1="-5.35675" x2="43.2018" y2="198.704" gradientUnits="userSpaceOnUse">
<stop stop-color="#47B8EC"/>
<stop offset="0.162437" stop-color="#96DDF8"/>
<stop offset="0.375635" stop-color="#47B8EC"/>
<stop offset="0.690355" stop-color="#2079C8"/>
<stop offset="1" stop-color="#186CBE"/>
</linearGradient>
<linearGradient id="paint10_linear" x1="49.3568" y1="-5.35663" x2="49.3568" y2="198.704" gradientUnits="userSpaceOnUse">
<stop stop-color="#47B8EC"/>
<stop offset="0.162437" stop-color="#96DDF8"/>
<stop offset="0.375635" stop-color="#47B8EC"/>
<stop offset="0.690355" stop-color="#2079C8"/>
<stop offset="1" stop-color="#186CBE"/>
</linearGradient>
<linearGradient id="paint11_linear" x1="111.304" y1="-5.35522" x2="111.304" y2="198.705" gradientUnits="userSpaceOnUse">
<stop stop-color="#47B8EC"/>
<stop offset="0.162437" stop-color="#96DDF8"/>
<stop offset="0.375635" stop-color="#47B8EC"/>
<stop offset="0.690355" stop-color="#2079C8"/>
<stop offset="1" stop-color="#186CBE"/>
</linearGradient>
<linearGradient id="paint12_linear" x1="70.7915" y1="-5.35527" x2="70.7915" y2="198.706" gradientUnits="userSpaceOnUse">
<stop stop-color="#47B8EC"/>
<stop offset="0.162437" stop-color="#96DDF8"/>
<stop offset="0.375635" stop-color="#47B8EC"/>
<stop offset="0.690355" stop-color="#2079C8"/>
<stop offset="1" stop-color="#186CBE"/>
</linearGradient>
<linearGradient id="paint13_linear" x1="62.1711" y1="-5.35667" x2="62.1711" y2="198.704" gradientUnits="userSpaceOnUse">
<stop stop-color="#47B8EC"/>
<stop offset="0.162437" stop-color="#96DDF8"/>
<stop offset="0.375635" stop-color="#47B8EC"/>
<stop offset="0.690355" stop-color="#2079C8"/>
<stop offset="1" stop-color="#186CBE"/>
</linearGradient>
<linearGradient id="paint14_linear" x1="50.2591" y1="-5.35237" x2="50.2591" y2="198.681" gradientUnits="userSpaceOnUse">
<stop stop-color="#47B8EC"/>
<stop offset="0.162437" stop-color="#96DDF8"/>
<stop offset="0.375635" stop-color="#47B8EC"/>
<stop offset="0.690355" stop-color="#2079C8"/>
<stop offset="1" stop-color="#186CBE"/>
</linearGradient>
<linearGradient id="paint15_linear" x1="82.8791" y1="-5.35524" x2="82.8791" y2="198.705" gradientUnits="userSpaceOnUse">
<stop stop-color="#47B8EC"/>
<stop offset="0.162437" stop-color="#96DDF8"/>
<stop offset="0.375635" stop-color="#47B8EC"/>
<stop offset="0.690355" stop-color="#2079C8"/>
<stop offset="1" stop-color="#186CBE"/>
</linearGradient>
<linearGradient id="paint16_linear" x1="54.8266" y1="-5.35525" x2="54.8266" y2="198.705" gradientUnits="userSpaceOnUse">
<stop stop-color="#47B8EC"/>
<stop offset="0.162437" stop-color="#96DDF8"/>
<stop offset="0.375635" stop-color="#47B8EC"/>
<stop offset="0.690355" stop-color="#2079C8"/>
<stop offset="1" stop-color="#186CBE"/>
</linearGradient>
<linearGradient id="paint17_linear" x1="19.5223" y1="-5.35691" x2="19.5223" y2="198.704" gradientUnits="userSpaceOnUse">
<stop stop-color="#47B8EC"/>
<stop offset="0.162437" stop-color="#96DDF8"/>
<stop offset="0.375635" stop-color="#47B8EC"/>
<stop offset="0.690355" stop-color="#2079C8"/>
<stop offset="1" stop-color="#186CBE"/>
</linearGradient>
<linearGradient id="paint18_linear" x1="72.0646" y1="-5.35666" x2="72.0646" y2="198.704" gradientUnits="userSpaceOnUse">
<stop stop-color="#47B8EC"/>
<stop offset="0.162437" stop-color="#96DDF8"/>
<stop offset="0.375635" stop-color="#47B8EC"/>
<stop offset="0.690355" stop-color="#2079C8"/>
<stop offset="1" stop-color="#186CBE"/>
</linearGradient>
<linearGradient id="paint19_linear" x1="87.5227" y1="-5.35535" x2="87.5227" y2="198.705" gradientUnits="userSpaceOnUse">
<stop stop-color="#47B8EC"/>
<stop offset="0.162437" stop-color="#96DDF8"/>
<stop offset="0.375635" stop-color="#47B8EC"/>
<stop offset="0.690355" stop-color="#2079C8"/>
<stop offset="1" stop-color="#186CBE"/>
</linearGradient>
<linearGradient id="paint20_linear" x1="76.6973" y1="-5.35516" x2="76.6972" y2="198.705" gradientUnits="userSpaceOnUse">
<stop stop-color="#47B8EC"/>
<stop offset="0.162437" stop-color="#96DDF8"/>
<stop offset="0.375635" stop-color="#47B8EC"/>
<stop offset="0.690355" stop-color="#2079C8"/>
<stop offset="1" stop-color="#186CBE"/>
</linearGradient>
<linearGradient id="paint21_linear" x1="94.1489" y1="-5.37368" x2="94.1489" y2="198.708" gradientUnits="userSpaceOnUse">
<stop stop-color="#47B8EC"/>
<stop offset="0.162437" stop-color="#96DDF8"/>
<stop offset="0.375635" stop-color="#47B8EC"/>
<stop offset="0.690355" stop-color="#2079C8"/>
<stop offset="1" stop-color="#186CBE"/>
</linearGradient>
<linearGradient id="paint22_linear" x1="78.3255" y1="-5.3875" x2="78.3255" y2="198.708" gradientUnits="userSpaceOnUse">
<stop stop-color="#47B8EC"/>
<stop offset="0.162437" stop-color="#96DDF8"/>
<stop offset="0.375635" stop-color="#47B8EC"/>
<stop offset="0.690355" stop-color="#2079C8"/>
<stop offset="1" stop-color="#186CBE"/>
</linearGradient>
<linearGradient id="paint23_linear" x1="84.4454" y1="-5.35663" x2="84.4454" y2="198.704" gradientUnits="userSpaceOnUse">
<stop stop-color="#47B8EC"/>
<stop offset="0.162437" stop-color="#96DDF8"/>
<stop offset="0.375635" stop-color="#47B8EC"/>
<stop offset="0.690355" stop-color="#2079C8"/>
<stop offset="1" stop-color="#186CBE"/>
</linearGradient>
<linearGradient id="paint24_linear" x1="83.6564" y1="-5.35666" x2="83.6564" y2="198.704" gradientUnits="userSpaceOnUse">
<stop stop-color="#47B8EC"/>
<stop offset="0.162437" stop-color="#96DDF8"/>
<stop offset="0.375635" stop-color="#47B8EC"/>
<stop offset="0.690355" stop-color="#2079C8"/>
<stop offset="1" stop-color="#186CBE"/>
</linearGradient>
<linearGradient id="paint25_linear" x1="88.2713" y1="-5.35515" x2="88.2713" y2="198.706" gradientUnits="userSpaceOnUse">
<stop stop-color="#47B8EC"/>
<stop offset="0.162437" stop-color="#96DDF8"/>
<stop offset="0.375635" stop-color="#47B8EC"/>
<stop offset="0.690355" stop-color="#2079C8"/>
<stop offset="1" stop-color="#186CBE"/>
</linearGradient>
<linearGradient id="paint26_linear" x1="93.2788" y1="-5.37802" x2="93.2788" y2="198.712" gradientUnits="userSpaceOnUse">
<stop stop-color="#47B8EC"/>
<stop offset="0.162437" stop-color="#96DDF8"/>
<stop offset="0.375635" stop-color="#47B8EC"/>
<stop offset="0.690355" stop-color="#2079C8"/>
<stop offset="1" stop-color="#186CBE"/>
</linearGradient>
<linearGradient id="paint27_linear" x1="110.339" y1="-5.32" x2="110.339" y2="198.684" gradientUnits="userSpaceOnUse">
<stop stop-color="#47B8EC"/>
<stop offset="0.162437" stop-color="#96DDF8"/>
<stop offset="0.375635" stop-color="#47B8EC"/>
<stop offset="0.690355" stop-color="#2079C8"/>
<stop offset="1" stop-color="#186CBE"/>
</linearGradient>
<linearGradient id="paint28_linear" x1="108.505" y1="-5.35527" x2="108.505" y2="198.705" gradientUnits="userSpaceOnUse">
<stop stop-color="#47B8EC"/>
<stop offset="0.162437" stop-color="#96DDF8"/>
<stop offset="0.375635" stop-color="#47B8EC"/>
<stop offset="0.690355" stop-color="#2079C8"/>
<stop offset="1" stop-color="#186CBE"/>
</linearGradient>
<linearGradient id="paint29_linear" x1="83.857" y1="-5.35535" x2="83.857" y2="198.705" gradientUnits="userSpaceOnUse">
<stop stop-color="#47B8EC"/>
<stop offset="0.162437" stop-color="#96DDF8"/>
<stop offset="0.375635" stop-color="#47B8EC"/>
<stop offset="0.690355" stop-color="#2079C8"/>
<stop offset="1" stop-color="#186CBE"/>
</linearGradient>
<linearGradient id="paint30_linear" x1="77.4917" y1="-5.37085" x2="77.4917" y2="198.712" gradientUnits="userSpaceOnUse">
<stop stop-color="#47B8EC"/>
<stop offset="0.162437" stop-color="#96DDF8"/>
<stop offset="0.375635" stop-color="#47B8EC"/>
<stop offset="0.690355" stop-color="#2079C8"/>
<stop offset="1" stop-color="#186CBE"/>
</linearGradient>
<linearGradient id="paint31_linear" x1="59.5965" y1="-5.35665" x2="59.5965" y2="198.704" gradientUnits="userSpaceOnUse">
<stop stop-color="#47B8EC"/>
<stop offset="0.162437" stop-color="#96DDF8"/>
<stop offset="0.375635" stop-color="#47B8EC"/>
<stop offset="0.690355" stop-color="#2079C8"/>
<stop offset="1" stop-color="#186CBE"/>
</linearGradient>
<linearGradient id="paint32_linear" x1="58.9386" y1="-5.35522" x2="58.9386" y2="198.705" gradientUnits="userSpaceOnUse">
<stop stop-color="#47B8EC"/>
<stop offset="0.162437" stop-color="#96DDF8"/>
<stop offset="0.375635" stop-color="#47B8EC"/>
<stop offset="0.690355" stop-color="#2079C8"/>
<stop offset="1" stop-color="#186CBE"/>
</linearGradient>
<linearGradient id="paint33_linear" x1="89.3795" y1="-5.3566" x2="89.3795" y2="198.704" gradientUnits="userSpaceOnUse">
<stop stop-color="#47B8EC"/>
<stop offset="0.162437" stop-color="#96DDF8"/>
<stop offset="0.375635" stop-color="#47B8EC"/>
<stop offset="0.690355" stop-color="#2079C8"/>
<stop offset="1" stop-color="#186CBE"/>
</linearGradient>
<linearGradient id="paint34_linear" x1="126.526" y1="-5.35521" x2="126.526" y2="198.699" gradientUnits="userSpaceOnUse">
<stop stop-color="#47B8EC"/>
<stop offset="0.162437" stop-color="#96DDF8"/>
<stop offset="0.375635" stop-color="#47B8EC"/>
<stop offset="0.690355" stop-color="#2079C8"/>
<stop offset="1" stop-color="#186CBE"/>
</linearGradient>
<linearGradient id="paint35_linear" x1="99.9209" y1="-5.35664" x2="99.9208" y2="198.705" gradientUnits="userSpaceOnUse">
<stop stop-color="#47B8EC"/>
<stop offset="0.162437" stop-color="#96DDF8"/>
<stop offset="0.375635" stop-color="#47B8EC"/>
<stop offset="0.690355" stop-color="#2079C8"/>
<stop offset="1" stop-color="#186CBE"/>
</linearGradient>
<linearGradient id="paint36_linear" x1="115.184" y1="-5.35666" x2="115.184" y2="198.704" gradientUnits="userSpaceOnUse">
<stop stop-color="#47B8EC"/>
<stop offset="0.162437" stop-color="#96DDF8"/>
<stop offset="0.375635" stop-color="#47B8EC"/>
<stop offset="0.690355" stop-color="#2079C8"/>
<stop offset="1" stop-color="#186CBE"/>
</linearGradient>
<linearGradient id="paint37_linear" x1="135.486" y1="-5.35519" x2="135.486" y2="198.705" gradientUnits="userSpaceOnUse">
<stop stop-color="#47B8EC"/>
<stop offset="0.162437" stop-color="#96DDF8"/>
<stop offset="0.375635" stop-color="#47B8EC"/>
<stop offset="0.690355" stop-color="#2079C8"/>
<stop offset="1" stop-color="#186CBE"/>
</linearGradient>
<linearGradient id="paint38_linear" x1="100.675" y1="-5.35667" x2="100.675" y2="198.704" gradientUnits="userSpaceOnUse">
<stop stop-color="#47B8EC"/>
<stop offset="0.162437" stop-color="#96DDF8"/>
<stop offset="0.375635" stop-color="#47B8EC"/>
<stop offset="0.690355" stop-color="#2079C8"/>
<stop offset="1" stop-color="#186CBE"/>
</linearGradient>
<linearGradient id="paint39_linear" x1="92.3373" y1="-5.35241" x2="92.3373" y2="198.702" gradientUnits="userSpaceOnUse">
<stop stop-color="#47B8EC"/>
<stop offset="0.162437" stop-color="#96DDF8"/>
<stop offset="0.375635" stop-color="#47B8EC"/>
<stop offset="0.690355" stop-color="#2079C8"/>
<stop offset="1" stop-color="#186CBE"/>
</linearGradient>
<linearGradient id="paint40_linear" x1="149.87" y1="-5.35526" x2="149.87" y2="198.705" gradientUnits="userSpaceOnUse">
<stop stop-color="#47B8EC"/>
<stop offset="0.162437" stop-color="#96DDF8"/>
<stop offset="0.375635" stop-color="#47B8EC"/>
<stop offset="0.690355" stop-color="#2079C8"/>
<stop offset="1" stop-color="#186CBE"/>
</linearGradient>
<linearGradient id="paint41_linear" x1="151.767" y1="-5.34957" x2="151.767" y2="198.701" gradientUnits="userSpaceOnUse">
<stop stop-color="#47B8EC"/>
<stop offset="0.162437" stop-color="#96DDF8"/>
<stop offset="0.375635" stop-color="#47B8EC"/>
<stop offset="0.690355" stop-color="#2079C8"/>
<stop offset="1" stop-color="#186CBE"/>
</linearGradient>
<linearGradient id="paint42_linear" x1="140.472" y1="-5.35667" x2="140.472" y2="198.704" gradientUnits="userSpaceOnUse">
<stop stop-color="#47B8EC"/>
<stop offset="0.162437" stop-color="#96DDF8"/>
<stop offset="0.375635" stop-color="#47B8EC"/>
<stop offset="0.690355" stop-color="#2079C8"/>
<stop offset="1" stop-color="#186CBE"/>
</linearGradient>
<linearGradient id="paint43_linear" x1="142.158" y1="-5.35522" x2="142.158" y2="198.705" gradientUnits="userSpaceOnUse">
<stop stop-color="#47B8EC"/>
<stop offset="0.162437" stop-color="#96DDF8"/>
<stop offset="0.375635" stop-color="#47B8EC"/>
<stop offset="0.690355" stop-color="#2079C8"/>
<stop offset="1" stop-color="#186CBE"/>
</linearGradient>
<linearGradient id="paint44_linear" x1="130.604" y1="-5.35522" x2="130.603" y2="198.706" gradientUnits="userSpaceOnUse">
<stop stop-color="#47B8EC"/>
<stop offset="0.162437" stop-color="#96DDF8"/>
<stop offset="0.375635" stop-color="#47B8EC"/>
<stop offset="0.690355" stop-color="#2079C8"/>
<stop offset="1" stop-color="#186CBE"/>
</linearGradient>
<linearGradient id="paint45_linear" x1="154.034" y1="-5.35525" x2="154.034" y2="198.705" gradientUnits="userSpaceOnUse">
<stop stop-color="#47B8EC"/>
<stop offset="0.162437" stop-color="#96DDF8"/>
<stop offset="0.375635" stop-color="#47B8EC"/>
<stop offset="0.690355" stop-color="#2079C8"/>
<stop offset="1" stop-color="#186CBE"/>
</linearGradient>
<linearGradient id="paint46_linear" x1="140.808" y1="-5.35661" x2="140.808" y2="198.704" gradientUnits="userSpaceOnUse">
<stop stop-color="#47B8EC"/>
<stop offset="0.162437" stop-color="#96DDF8"/>
<stop offset="0.375635" stop-color="#47B8EC"/>
<stop offset="0.690355" stop-color="#2079C8"/>
<stop offset="1" stop-color="#186CBE"/>
</linearGradient>
<linearGradient id="paint47_linear" x1="143.433" y1="-5.3566" x2="143.433" y2="198.704" gradientUnits="userSpaceOnUse">
<stop stop-color="#47B8EC"/>
<stop offset="0.162437" stop-color="#96DDF8"/>
<stop offset="0.375635" stop-color="#47B8EC"/>
<stop offset="0.690355" stop-color="#2079C8"/>
<stop offset="1" stop-color="#186CBE"/>
</linearGradient>
<linearGradient id="paint48_linear" x1="16.8482" y1="-5.35526" x2="16.8482" y2="198.706" gradientUnits="userSpaceOnUse">
<stop stop-color="#47B8EC"/>
<stop offset="0.162437" stop-color="#96DDF8"/>
<stop offset="0.375635" stop-color="#47B8EC"/>
<stop offset="0.690355" stop-color="#2079C8"/>
<stop offset="1" stop-color="#186CBE"/>
</linearGradient>
<linearGradient id="paint49_linear" x1="4.50435" y1="-5.35244" x2="4.50434" y2="198.699" gradientUnits="userSpaceOnUse">
<stop stop-color="#47B8EC"/>
<stop offset="0.162437" stop-color="#96DDF8"/>
<stop offset="0.375635" stop-color="#47B8EC"/>
<stop offset="0.690355" stop-color="#2079C8"/>
<stop offset="1" stop-color="#186CBE"/>
</linearGradient>
<linearGradient id="paint50_linear" x1="50.4054" y1="-5.35665" x2="50.4054" y2="198.719" gradientUnits="userSpaceOnUse">
<stop stop-color="#47B8EC"/>
<stop offset="0.162437" stop-color="#96DDF8"/>
<stop offset="0.375635" stop-color="#47B8EC"/>
<stop offset="0.690355" stop-color="#2079C8"/>
<stop offset="1" stop-color="#186CBE"/>
</linearGradient>
<linearGradient id="paint51_linear" x1="53.9202" y1="-5.35668" x2="53.9201" y2="198.705" gradientUnits="userSpaceOnUse">
<stop stop-color="#47B8EC"/>
<stop offset="0.162437" stop-color="#96DDF8"/>
<stop offset="0.375635" stop-color="#47B8EC"/>
<stop offset="0.690355" stop-color="#2079C8"/>
<stop offset="1" stop-color="#186CBE"/>
</linearGradient>
<linearGradient id="paint52_linear" x1="136.273" y1="-5.35658" x2="136.273" y2="198.704" gradientUnits="userSpaceOnUse">
<stop stop-color="#47B8EC"/>
<stop offset="0.162437" stop-color="#96DDF8"/>
<stop offset="0.375635" stop-color="#47B8EC"/>
<stop offset="0.690355" stop-color="#2079C8"/>
<stop offset="1" stop-color="#186CBE"/>
</linearGradient>
<linearGradient id="paint53_linear" x1="77.7533" y1="-5.35525" x2="77.7533" y2="198.706" gradientUnits="userSpaceOnUse">
<stop stop-color="#47B8EC"/>
<stop offset="0.162437" stop-color="#96DDF8"/>
<stop offset="0.375635" stop-color="#47B8EC"/>
<stop offset="0.690355" stop-color="#2079C8"/>
<stop offset="1" stop-color="#186CBE"/>
</linearGradient>
<linearGradient id="paint54_linear" x1="158.114" y1="-5.35666" x2="158.114" y2="198.704" gradientUnits="userSpaceOnUse">
<stop stop-color="#47B8EC"/>
<stop offset="0.162437" stop-color="#96DDF8"/>
<stop offset="0.375635" stop-color="#47B8EC"/>
<stop offset="0.690355" stop-color="#2079C8"/>
<stop offset="1" stop-color="#186CBE"/>
</linearGradient>
<linearGradient id="paint55_linear" x1="45.264" y1="-5.35676" x2="45.264" y2="198.704" gradientUnits="userSpaceOnUse">
<stop stop-color="#47B8EC"/>
<stop offset="0.162437" stop-color="#96DDF8"/>
<stop offset="0.375635" stop-color="#47B8EC"/>
<stop offset="0.690355" stop-color="#2079C8"/>
<stop offset="1" stop-color="#186CBE"/>
</linearGradient>
</defs>
</svg>
